<svg width="9" height="12" viewBox="0 0 9 12" fill="none" xmlns="http://www.w3.org/2000/svg">
<path d="M2.8002 11.72L7.8202 6.7C8.00686 6.51333 8.10019 6.28 8.10019 6C8.10019 5.72 8.00686 5.48667 7.8202 5.3L2.8002 0.280001C2.61353 0.0933332 2.38353 0 2.1102 0C1.83686 0 1.60686 0.0933332 1.4202 0.280001L0.980195 0.72C0.793529 0.906667 0.700195 1.13667 0.700195 1.41C0.700195 1.68333 0.793529 1.91333 0.980195 2.1L4.1802 5.3C4.3802 5.5 4.4802 5.73333 4.4802 6C4.4802 6.26667 4.3802 6.5 4.1802 6.7L0.980195 9.9C0.793529 10.0867 0.700195 10.3167 0.700195 10.59C0.700195 10.8633 0.793529 11.0933 0.980195 11.28L1.4202 11.72C1.60686 11.9067 1.83686 12 2.1102 12C2.38353 12 2.61353 11.9067 2.8002 11.72Z" fill="#C27B7F"/>
</svg>
