<svg width="28" height="18" viewBox="0 0 28 18" fill="none" xmlns="http://www.w3.org/2000/svg">
<path d="M26.4626 -0.000976562H1.53738C0.688313 -0.000976562 0 0.687398 0 1.53641V11.5488H28V1.53641C28 0.687398 27.3117 -0.000976562 26.4626 -0.000976562ZM9.6236 7.0423C9.62354 7.44404 9.29484 7.77274 8.8931 7.77274H3.44869C3.04695 7.77274 2.71825 7.44404 2.71825 7.0423V4.47805C2.71825 4.07631 3.04695 3.74761 3.44869 3.74761H8.89317C9.2949 3.74761 9.6236 4.07631 9.6236 4.47805V7.0423ZM19.0833 8.178C18.6265 8.46671 18.0857 8.63441 17.5054 8.63441C15.8716 8.63441 14.5471 7.30988 14.5471 5.67608C14.5471 4.04222 15.8716 2.71776 17.5054 2.71776C18.1218 2.71776 18.694 2.90646 19.1678 3.22894C18.63 3.93193 18.3094 4.80954 18.3094 5.76106C18.3094 6.66138 18.5968 7.49529 19.0833 8.178ZM22.4852 8.71938C20.8513 8.71938 19.5268 7.39486 19.5268 5.76106C19.5268 4.12726 20.8513 2.80274 22.4852 2.80274C24.119 2.80274 25.4435 4.1272 25.4435 5.76106C25.4435 7.39498 24.119 8.71938 22.4852 8.71938Z" fill="white"/>
<path d="M0 16.4636C0 17.3127 0.688313 18.001 1.53738 18.001H26.4626C27.3117 18.001 28 17.3127 28 16.4636V15.688H0V16.4636Z" fill="white"/>
</svg>
