<svg width="24" height="18" viewBox="0 0 24 18" fill="none" xmlns="http://www.w3.org/2000/svg">
<g clip-path="url(#clip0_62_844)">
<path fill-rule="evenodd" clip-rule="evenodd" d="M22 0C22.53 0 23.039 0.211 23.414 0.586C23.789 0.961 24 1.47 24 2V16C24 16.53 23.789 17.039 23.414 17.414C23.039 17.789 22.53 18 22 18H2C1.47 18 0.961 17.789 0.586 17.414C0.211 17.039 0 16.53 0 16V2C0 1.47 0.211 0.961 0.586 0.586C0.961 0.211 1.47 0 2 0H22ZM23 8H1V16C1 16.552 1.448 17 2 17H22C22.552 17 23 16.552 23 16V8ZM8 13V14H3V13H8ZM21 11V12H18V11H21ZM11 11V12H3V11H11ZM1 5V7H23V5H1ZM23 4V2C23 1.448 22.552 1 22 1H2C1.448 1 1 1.448 1 2V4H23Z" fill="#2F4858" fill-opacity="0.5"/>
</g>
<defs>
<clipPath id="clip0_62_844">
<rect width="24" height="18" fill="white"/>
</clipPath>
</defs>
</svg>
