<svg width="25" height="25" viewBox="0 0 25 25" fill="none" xmlns="http://www.w3.org/2000/svg">
<path d="M0.25 12.5C0.25 5.72601 5.72601 0.25 12.5 0.25C19.274 0.25 24.75 5.72601 24.75 12.5C24.75 19.274 19.274 24.75 12.5 24.75C5.72601 24.75 0.25 19.274 0.25 12.5ZM1.82566 12.5C1.82566 18.3845 6.61551 23.1743 12.5 23.1743C18.3845 23.1743 23.1743 18.3845 23.1743 12.5C23.1743 6.61551 18.3845 1.82566 12.5 1.82566C6.61551 1.82566 1.82566 6.61551 1.82566 12.5Z" fill="black" stroke="white" stroke-width="0.5"/>
<path d="M12.3232 11.1891L12.5 11.3659L12.6767 11.1891L16.8281 7.03775C17.1548 6.71105 17.6355 6.71105 17.9622 7.03775C18.2882 7.36366 18.2898 7.84443 17.9571 8.17704L13.8109 12.3233L13.6341 12.5L13.8109 12.6768L17.9571 16.823C18.2838 17.1497 18.2838 17.6305 17.9571 17.9572L17.955 17.9593C17.8789 18.0373 17.7104 18.1558 17.5049 18.1928C17.3157 18.2268 17.0775 18.196 16.8203 17.9545L12.6767 13.811L12.5 13.6342L12.3232 13.811L8.17697 17.9572L8.17612 17.9581C7.96683 18.1694 7.75329 18.22 7.56345 18.1998C7.36273 18.1785 7.17088 18.075 7.03596 17.9506C6.70907 17.6462 6.71004 17.1558 7.0428 16.823L11.189 12.6768L11.3658 12.5L11.189 12.3233L7.0428 8.17704C6.71609 7.85034 6.71609 7.36957 7.0428 7.04287C7.3695 6.71616 7.85027 6.71616 8.17697 7.04287L12.3232 11.1891Z" fill="black" stroke="white" stroke-width="0.5"/>
</svg>
