<svg width="16" height="13" viewBox="0 0 16 13" fill="none" xmlns="http://www.w3.org/2000/svg">
<path d="M5.13807 12.8952L0.0796056 7.8629C0.0271862 7.79301 0.000976562 7.71875 0.000976562 7.64012C0.000976562 7.56149 0.0271862 7.48723 0.0796056 7.41734L1.80944 5.71371C1.86186 5.66129 1.92739 5.63508 2.00602 5.63508C2.08465 5.63508 2.15891 5.66129 2.2288 5.71371L5.05944 8.54435C5.11186 8.59677 5.17739 8.62298 5.25602 8.62298C5.33465 8.62298 5.40891 8.59677 5.4788 8.54435C7.24358 6.65726 9.89076 3.84409 13.4203 0.104839C13.4728 0.0349464 13.5426 0 13.63 0C13.7174 0 13.7873 0.0262098 13.8397 0.0786295L15.6219 1.78226C15.6918 1.83468 15.7268 1.9002 15.7268 1.97883C15.7268 2.05746 15.7006 2.13172 15.6482 2.20161C13.3941 4.57796 10.0305 8.14247 5.55743 12.8952C5.50501 12.9651 5.43512 13 5.34775 13C5.26039 13 5.19049 12.9651 5.13807 12.8952Z" fill="#C27B7F"/>
</svg>
