<svg width="12" height="10" viewBox="0 0 12 10" fill="none" xmlns="http://www.w3.org/2000/svg">
<g clip-path="url(#clip0_29_208)">
<path d="M3.92 9.87996L0.06 6.03996C0.02 5.98663 0 5.92996 0 5.86996C0 5.80996 0.02 5.75329 0.06 5.69996L1.38 4.39996C1.42 4.35996 1.47 4.33996 1.53 4.33996C1.59 4.33996 1.64667 4.35996 1.7 4.39996L3.86 6.55996C3.9 6.59996 3.95 6.61996 4.01 6.61996C4.07 6.61996 4.12667 6.59996 4.18 6.55996C5.52667 5.11996 7.54667 2.97329 10.24 0.119961C10.28 0.0666275 10.3333 0.0399609 10.4 0.0399609C10.4667 0.0399609 10.52 0.0599613 10.56 0.0999613L11.92 1.39996C11.9733 1.43996 12 1.48996 12 1.54996C12 1.60996 11.98 1.66663 11.94 1.71996C10.22 3.53329 7.65333 6.25329 4.24 9.87996C4.2 9.93329 4.14667 9.95996 4.08 9.95996C4.01333 9.95996 3.96 9.93329 3.92 9.87996Z" fill="#C27B7F"/>
</g>
<defs>
<clipPath id="clip0_29_208">
<rect width="12" height="10" fill="white" transform="matrix(1 0 0 -1 0 10)"/>
</clipPath>
</defs>
</svg>
