<svg width="14" height="10" viewBox="0 0 14 10" fill="none" xmlns="http://www.w3.org/2000/svg">
<path d="M7.32377 2.66395C7.23843 2.67462 7.1531 2.70662 7.06777 2.75995C6.98243 2.81329 6.91577 2.88795 6.86777 2.98395C6.81977 3.07995 6.79043 3.16529 6.77977 3.23995C6.75843 3.36795 6.7531 3.47462 6.76377 3.55995C6.7851 3.69862 6.83043 3.79462 6.89977 3.84795C6.9691 3.90129 7.04643 3.92262 7.13177 3.91195L7.29177 3.89595C7.32377 3.89595 7.37177 3.87462 7.43577 3.83195L7.53177 2.66395H7.32377ZM0.107766 1.67195C0.598432 2.16262 1.33977 2.90395 2.33177 3.89595C4.3051 5.85862 5.78243 7.33595 6.76377 8.32795C6.85977 8.42395 6.9371 8.46929 6.99577 8.46395C7.05443 8.45862 7.13177 8.41329 7.22777 8.32795L13.5158 2.02395L13.6438 1.91195C13.8144 1.77329 13.9184 1.65862 13.9558 1.56795C13.9931 1.47729 14.0064 1.32529 13.9958 1.11195L13.9798 0.903953C13.9904 0.466619 13.7718 0.247952 13.3238 0.247952H0.651766C0.225099 0.247952 0.0117656 0.461286 0.0117656 0.887953V1.41595C0.00109896 1.49062 0.033099 1.57595 0.107766 1.67195ZM5.19577 2.96795C5.27043 2.69062 5.39843 2.41862 5.57977 2.15195C5.77177 1.90662 6.0171 1.69862 6.31577 1.52795C6.63577 1.34662 7.0091 1.23462 7.43577 1.19195C7.6491 1.18129 7.87043 1.19462 8.09977 1.23195C8.3291 1.26929 8.5211 1.34129 8.67577 1.44795C8.83043 1.55462 8.97177 1.70929 9.09977 1.91195C9.20643 2.09329 9.27577 2.32262 9.30777 2.59995C9.31843 2.77062 9.30777 2.96262 9.27577 3.17595C9.2331 3.35729 9.15843 3.53329 9.05177 3.70395C8.96643 3.85329 8.84643 3.98395 8.69177 4.09595C8.5371 4.20795 8.35043 4.27729 8.13177 4.30395C7.9131 4.33062 7.73977 4.28529 7.61177 4.16795C7.55843 4.21062 7.46777 4.26395 7.33977 4.32795C7.25443 4.35995 7.12643 4.38662 6.95577 4.40795C6.8491 4.42929 6.7531 4.42662 6.66777 4.39995C6.58243 4.37329 6.50243 4.33329 6.42777 4.27995C6.34243 4.19462 6.28377 4.11995 6.25177 4.05595C6.2091 3.95995 6.1771 3.84795 6.15577 3.71995C6.13443 3.50662 6.1531 3.30929 6.21177 3.12795C6.27043 2.94662 6.3531 2.78662 6.45977 2.64795C6.5451 2.54129 6.6731 2.42929 6.84377 2.31195C6.9931 2.23729 7.15843 2.18395 7.33977 2.15195H7.48377C7.61177 2.14129 7.70243 2.14129 7.75577 2.15195C7.86243 2.15195 7.99043 2.17329 8.13977 2.21595L7.99577 3.81595C8.0171 3.82662 8.07043 3.83195 8.15577 3.83195C8.2731 3.81062 8.37443 3.76262 8.45977 3.68795C8.5451 3.61329 8.6091 3.52262 8.65177 3.41595C8.69443 3.30929 8.7291 3.18929 8.75577 3.05595C8.78243 2.92262 8.7851 2.78662 8.76377 2.64795C8.73177 2.30662 8.59843 2.04529 8.36377 1.86395C8.1291 1.70395 7.81443 1.63995 7.41977 1.67195C7.14243 1.70395 6.87577 1.77862 6.61977 1.89595C6.40643 2.01329 6.2251 2.17329 6.07577 2.37595C5.92643 2.57862 5.81977 2.79195 5.75577 3.01595C5.69177 3.23995 5.67043 3.47995 5.69177 3.73595C5.70243 3.91729 5.75577 4.09862 5.85177 4.27995C5.94777 4.46129 6.0491 4.58395 6.15577 4.64795C6.28377 4.74395 6.42243 4.80795 6.57177 4.83995C6.7211 4.87195 6.88643 4.87729 7.06777 4.85595C7.2811 4.83462 7.43043 4.81329 7.51577 4.79195C7.65443 4.75995 7.7771 4.71195 7.88377 4.64795L8.01177 4.91995C8.0331 4.98395 8.0491 5.03195 8.05977 5.06395C8.0171 5.09595 7.9531 5.12795 7.86777 5.15995C7.7611 5.20262 7.67843 5.23195 7.61977 5.24795C7.5611 5.26395 7.46777 5.28262 7.33977 5.30395C7.21177 5.32529 7.11577 5.33595 7.05177 5.33595C6.8171 5.36795 6.58777 5.35729 6.36377 5.30395C6.13977 5.25062 5.93977 5.16262 5.76377 5.03995C5.58777 4.91729 5.44643 4.75462 5.33977 4.55195C5.21177 4.31729 5.14243 4.06662 5.13177 3.79995C5.09977 3.56529 5.1211 3.28795 5.19577 2.96795ZM10.8278 5.94395C10.8171 5.93329 10.8011 5.91729 10.7798 5.89595L10.6838 5.81595C10.6411 5.87995 10.6091 5.92262 10.5878 5.94395L7.70777 8.82395C7.48377 9.04795 7.24643 9.15995 6.99577 9.15995C6.7451 9.15995 6.5131 9.05329 6.29977 8.83995L3.41977 5.95995C3.38777 5.92795 3.35043 5.87995 3.30777 5.81595C3.27577 5.83729 3.2491 5.85862 3.22777 5.87995L0.0917656 9.01595C0.017099 9.09062 -0.00423438 9.19195 0.0277656 9.31995C0.0917656 9.60795 0.294432 9.75195 0.635766 9.75195H13.4678C13.6918 9.71995 13.8464 9.61329 13.9318 9.43195C13.9744 9.32529 13.9931 9.23995 13.9878 9.17595C13.9824 9.11195 13.9371 9.03729 13.8518 8.95195C13.1798 8.29062 12.1718 7.28795 10.8278 5.94395ZM0.0117656 8.07195L2.73177 5.35195C2.13443 4.73329 1.22777 3.81595 0.0117656 2.59995V8.07195ZM13.9798 8.05595V2.59995L11.2598 5.31995L13.9798 8.05595Z" fill="#0F172A"/>
</svg>
