<svg width="100" height="100" viewBox="0 0 100 100" fill="none" xmlns="http://www.w3.org/2000/svg">
<g clip-path="url(#clip0_226_649)">
<path d="M50 48C47 48 45 50 45 53C45 55 46.5 56.5 48 57L46.5 64H53L51.5 57C53.5 56.5 54.5 55 54.5 53C55 50 53 48 50 48ZM50.5 26.5C47 26.5 43.5 29 43.5 32.5V40H57V32.5C56.5 29 54 26.5 50.5 26.5ZM50 10L15 25V40C15.5 62 29.5 81.5 50 89.5C70.5 81.5 84.5 62 85 40V25L50 10ZM70 65C70 68 68 70 65 70H35C32 70 30 68 30 65V45C30 42 32 40 35 40H36.5V32.5C37 25.5 43 20 50 20C57 20 63 25.5 63.5 32.5V40H65C68 40 70 42 70 45V65Z" fill="#2C6A50"/>
</g>
<defs>
<clipPath id="clip0_226_649">
<rect width="100" height="100" fill="white"/>
</clipPath>
</defs>
</svg>
