<svg width="80" height="80" viewBox="0 0 80 80" fill="none" xmlns="http://www.w3.org/2000/svg">
<g clip-path="url(#clip0_226_655)">
<path d="M43.8256 79.7758C59.8735 77.9781 72.7347 65.1496 74.5651 49.1016C76.9674 28.1184 60.6579 10.2565 40.214 10.0277V0.614609C40.214 0.0916617 39.5603 -0.186154 39.119 0.140688L19.7373 14.3747C19.4105 14.6198 19.4105 15.0937 19.7373 15.3388L39.119 29.5728C39.5603 29.8997 40.214 29.6055 40.214 29.0989V19.7022C54.5787 19.931 66.0835 32.1549 65.103 46.7647C64.2695 59.3318 54.023 69.5293 41.456 70.33C28.1371 71.1798 16.8121 61.6687 14.7856 49.0853C14.4098 46.7484 12.367 45.0488 10.0137 45.0488C7.0885 45.0488 4.80061 47.6472 5.25819 50.5397C8.10171 68.467 24.6563 81.9166 43.8256 79.7758Z" fill="#2C6A50"/>
</g>
<defs>
<clipPath id="clip0_226_655">
<rect width="80" height="80" fill="white"/>
</clipPath>
</defs>
</svg>
