<svg width="80" height="80" viewBox="0 0 80 80" fill="none" xmlns="http://www.w3.org/2000/svg">
<path d="M74.7428 11.1965C74.5992 10.1651 73.857 9.31661 72.8538 9.03774L40.7005 0.0958694C40.2421 -0.0317123 39.7579 -0.0317123 39.2991 0.0958694L7.14576 9.03774C6.14254 9.31661 5.4004 10.1647 5.25679 11.1965C5.07029 12.5375 0.815826 44.2224 11.7282 59.9847C22.6278 75.7281 38.7069 79.7626 39.3859 79.9268C39.5878 79.9756 39.7934 79.9997 39.9998 79.9997C40.2062 79.9997 40.4118 79.9753 40.6137 79.9268C41.293 79.7626 57.3722 75.7281 68.2713 59.9847C79.1838 44.2228 74.9293 12.5379 74.7428 11.1965ZM60.7346 29.6945L38.8028 51.6263C38.2924 52.1367 37.6231 52.3922 36.9542 52.3922C36.2853 52.3922 35.616 52.137 35.1057 51.6263L21.5454 38.0661C21.055 37.576 20.7796 36.9109 20.7796 36.2175C20.7796 35.5242 21.0553 34.8591 21.5454 34.369L24.2379 31.6765C25.2589 30.6559 26.9143 30.6555 27.935 31.6765L36.9542 40.6958L54.3451 23.3046C54.8352 22.8141 55.5003 22.5387 56.1936 22.5387C56.8869 22.5387 57.552 22.8141 58.0421 23.3046L60.7346 25.997C61.7556 27.018 61.7556 28.6735 60.7346 29.6945Z" fill="#2C6A50"/>
</svg>
