<svg width="100" height="100" viewBox="0 0 100 100" fill="none" xmlns="http://www.w3.org/2000/svg">
<path d="M86.0625 50.1554V50.1551C86.082 41.4243 86.082 35.9482 86.0576 32.66C86.0454 31.0148 86.0272 29.9225 86.0024 29.2456C85.999 29.1521 85.9955 29.0674 85.9919 28.9909C85.8213 29.0682 85.6185 29.1622 85.3893 29.2705C84.6912 29.6002 83.7582 30.0569 82.7662 30.5626L82.7627 30.5644L79.3672 32.2621V39.1406C79.3672 42.762 79.3579 44.7319 79.263 45.8857C79.2154 46.4645 79.1438 46.8773 79.0237 47.206C78.8995 47.5458 78.733 47.7688 78.5479 47.977C78.5008 48.0391 78.4063 48.1922 78.2988 48.4072C78.1899 48.6249 78.0847 48.8721 78.017 49.0924L78.0135 49.1035L78.0134 49.1034C77.3027 51.2356 75.2806 52.301 73.0501 51.7369C72.7959 51.6824 72.5591 51.628 72.376 51.5858C72.3438 51.6731 72.3102 51.7759 72.2793 51.8894L72.2764 51.8999L72.2763 51.8999C72.0888 52.5326 71.6594 53.1505 71.1535 53.6404C70.6478 54.1302 70.0179 54.5382 69.3833 54.7027L69.3724 54.7056L69.3723 54.7055C69.0219 54.7879 68.7183 54.838 68.3852 54.8258C68.0549 54.8138 67.7249 54.7418 67.3173 54.6195L67.3139 54.6185C66.8624 54.4796 66.0633 54.3692 65.5983 54.3672C65.2097 54.3869 64.8899 54.3693 64.5945 54.2753C64.2901 54.1784 64.0563 54.0145 63.824 53.8245L63.8176 53.8192L63.8177 53.8192L63.3098 53.3895L63.1342 53.2409L63.1328 53.0108L63.0938 46.4101L63.0938 46.4092M86.0625 50.1554L63.4424 40.293C63.5205 41.078 63.5666 42.901 63.5938 46.4062L63.0938 46.4092M86.0625 50.1554L86.024 71.7744L69.0951 81.0853C64.3689 83.6827 60.053 86.0457 56.9092 87.7592C55.3371 88.616 54.0586 89.3102 53.1685 89.79C52.8909 89.9396 52.6514 90.0682 52.4528 90.1743C52.4469 89.9319 52.441 89.6341 52.4354 89.2833C52.4177 88.1914 52.4018 86.5954 52.3896 84.5819C52.3652 80.5554 52.3555 74.8636 52.375 68.2046V68.204L52.4135 45.7771L57.7249 43.1028L57.7259 43.1023C59.2669 42.3221 60.6808 41.62 61.7282 41.1085C62.2342 40.8614 62.6536 40.6592 62.96 40.5144M86.0625 50.1554L62.96 40.5144M63.0938 46.4092C63.0742 43.89 63.045 42.2479 63.0014 41.2373C62.9886 40.9393 62.9747 40.7011 62.96 40.5144M63.0938 46.4092L62.96 40.5144M47.6641 68.1259C47.6641 68.1256 47.6641 68.1253 47.6641 68.125L47.6255 45.7383L30.5576 37.166L30.5568 37.1656L13.9375 28.8559V49.1016V69.8732L30.882 80.0398L47.6641 68.1259ZM47.6641 68.1259C47.6641 76.2512 47.6641 81.9132 47.6445 85.5442C47.6348 87.3604 47.6201 88.6646 47.5983 89.5135C47.5938 89.688 47.5891 89.8421 47.584 89.9766C47.3763 89.8569 47.1219 89.709 46.824 89.5348C45.9289 89.0114 44.6471 88.254 43.0727 87.3191C39.9241 85.4495 35.6085 82.8718 30.8822 80.04L47.6641 68.1259ZM29.738 13.3025L29.7366 13.3032C20.4813 17.9503 15.5442 20.4335 12.8877 21.8278C11.5632 22.523 10.7885 22.9563 10.3254 23.2567C9.87388 23.5496 9.64514 23.7604 9.51367 24.0341C9.38776 24.2756 9.3258 24.5697 9.28178 25.1358C9.23641 25.7193 9.20706 26.6598 9.18754 28.2458C9.14844 31.4227 9.14844 37.245 9.14844 48.1157V48.125C9.14844 57.8704 9.1582 63.7031 9.19241 67.1631C9.2095 68.8922 9.23274 70.0344 9.26424 70.778C9.27997 71.1492 9.29802 71.4282 9.31931 71.6343C9.33897 71.8247 9.36529 72.0004 9.41614 72.1326L9.41952 72.1414L9.42324 72.1501C9.48989 72.3056 9.60002 72.4398 9.7351 72.5698C9.87167 72.7013 10.0603 72.8533 10.3169 73.0399C10.8313 73.4139 11.6712 73.9641 13.041 74.8187C15.785 76.5307 20.7017 79.4924 29.5086 84.7648C37.5742 89.6081 42.509 92.5494 45.4912 94.2801C46.9813 95.1449 47.9903 95.7111 48.6611 96.0619C48.9956 96.2369 49.2546 96.3629 49.4515 96.4463C49.5499 96.4879 49.6404 96.5223 49.722 96.5469C49.7966 96.5693 49.8955 96.5938 50 96.5938C50.1104 96.5938 50.2171 96.5637 50.2857 96.5422C50.3677 96.5166 50.4624 96.4809 50.5677 96.4375C50.7791 96.3502 51.0624 96.2196 51.4262 96.0419C52.1552 95.6857 53.2346 95.1269 54.7615 94.3133C57.8167 92.6855 62.6829 90.0277 70.1632 85.9067C75.4763 82.9962 80.3603 80.2905 83.9556 78.273C85.7532 77.2643 87.2299 76.4269 88.2775 75.8217C88.8009 75.5194 89.2194 75.2737 89.5179 75.0931C89.6668 75.003 89.7888 74.9273 89.8804 74.8678C89.9469 74.8246 90.0435 74.7614 90.1085 74.6999L90.6527 74.1945L90.8122 74.0465L90.8125 73.8289L90.8516 49.3367C90.8711 37.8344 90.8711 31.7073 90.832 28.3828C90.8125 26.7231 90.7831 25.75 90.7404 25.1524C90.6982 24.5616 90.6406 24.2808 90.5312 24.0464L90.5256 24.0343L90.5193 24.0225C90.3787 23.7588 90.1532 23.5528 89.6887 23.2551C89.2213 22.9557 88.444 22.5229 87.1168 21.8276C84.4557 20.4334 79.5188 17.9504 70.2634 13.3032L70.2627 13.3028C64.8713 10.6071 59.9093 8.14563 56.2703 6.35787C54.451 5.46409 52.9613 4.7382 51.9137 4.23549C51.3902 3.98431 50.9752 3.78791 50.6839 3.65389C50.5388 3.58713 50.421 3.53428 50.3346 3.4975C50.292 3.4794 50.2519 3.46297 50.2177 3.45029C50.201 3.44413 50.1796 3.43653 50.1566 3.42978L50.1556 3.42949C50.1462 3.42659 50.0799 3.40625 50 3.40625C49.92 3.40625 49.8537 3.42664 49.8441 3.42958L49.8431 3.42988C49.8201 3.43666 49.7986 3.4443 49.782 3.45047C49.7477 3.46318 49.7077 3.47964 49.6653 3.49775C49.5791 3.53455 49.4617 3.58741 49.3171 3.65417C49.0268 3.78818 48.6132 3.98458 48.0913 4.23574C47.0468 4.7384 45.5609 5.46426 43.7441 6.35799C40.1102 8.14564 35.1484 10.607 29.738 13.3025ZM66.8459 16.8921L66.8467 16.8925C71.4557 19.197 75.6541 21.306 78.7097 22.8533C80.2376 23.627 81.4788 24.2598 82.3424 24.7063C82.599 24.8389 82.8215 24.9547 83.008 25.0527C82.9346 25.0959 82.855 25.142 82.7695 25.1909C82.1644 25.5367 81.294 26.001 80.2842 26.5059L76.9201 28.188L60.5464 19.5581C60.5462 19.558 60.5459 19.5578 60.5456 19.5577C55.2336 16.7454 51.0953 14.5396 48.3 13.0225C46.9017 12.2635 45.8427 11.6786 45.1418 11.277C45.0122 11.2028 44.8958 11.1353 44.7923 11.0745C44.9 11.0155 45.0188 10.9516 45.1469 10.8837C45.6982 10.5914 46.4074 10.2325 47.12 9.88233C47.8325 9.53216 48.5444 9.19257 49.1009 8.93882C49.3796 8.8117 49.6157 8.70778 49.7919 8.6352C49.8539 8.60963 49.9062 8.5889 49.9489 8.57283C50.0081 8.59763 50.0856 8.63148 50.1821 8.67481C50.4277 8.78513 50.7795 8.94926 51.2274 9.16242C52.1224 9.58832 53.391 10.2049 54.9406 10.9663C58.0395 12.4889 62.2569 14.5878 66.8459 16.8921ZM71.704 30.7637C71.231 31.0318 70.3702 31.4629 68.878 32.209L68.8742 32.2109L65.4273 33.971L48.5439 25.5293C43.8572 23.186 39.6008 21.0383 36.5264 19.4669C34.9889 18.6811 33.7485 18.0402 32.8982 17.5913C32.6966 17.4849 32.5177 17.3896 32.3624 17.306C32.5194 17.2222 32.6975 17.1284 32.8928 17.0267C33.6271 16.644 34.5923 16.1547 35.5601 15.672C36.5278 15.1894 37.4956 14.7146 38.2351 14.361C38.6053 14.1839 38.9157 14.0385 39.1394 13.9379C39.2165 13.9032 39.2813 13.8748 39.3334 13.8526C39.3808 13.8737 39.4393 13.9006 39.5094 13.9335C39.738 14.0409 40.0695 14.2032 40.4949 14.4158C41.3447 14.8404 42.557 15.4593 44.0433 16.2257C47.0154 17.7581 51.0767 19.8766 55.51 22.2007C59.9627 24.5442 64.0539 26.702 67.061 28.2935C68.5648 29.0893 69.7971 29.7433 70.6679 30.208C71.1035 30.4404 71.4479 30.6251 71.6904 30.7563C71.695 30.7588 71.6995 30.7613 71.704 30.7637ZM72.0978 30.5101C72.1017 30.5056 72.1027 30.5052 72.099 30.5088C72.0987 30.5092 72.0983 30.5096 72.0978 30.5101ZM59.2788 36.2464C59.5246 36.3715 59.7401 36.4815 59.9233 36.5754C59.717 36.6947 59.4672 36.835 59.1786 36.9932C58.2241 37.5165 56.8634 38.2261 55.2864 39.0048L55.2829 39.0065L49.9997 41.6669L33.1932 33.2251L33.1924 33.2247C28.5052 30.8811 24.2482 28.7428 21.1634 27.1809C19.6207 26.3998 18.3722 25.7633 17.5099 25.3176C17.3023 25.2103 17.1176 25.1142 16.9568 25.0301C17.1945 24.9022 17.48 24.7505 17.8026 24.5806C18.783 24.0642 20.0971 23.384 21.4293 22.7008C22.7614 22.0176 24.1102 21.3323 25.1595 20.8058C25.6844 20.5424 26.1333 20.3194 26.4673 20.1564C26.6306 20.0767 26.765 20.0121 26.8668 19.9644C26.9087 19.985 26.9571 20.0088 27.0118 20.0359C27.2411 20.1492 27.5775 20.3165 28.0098 20.5322C28.8743 20.9636 30.1203 21.5872 31.656 22.3563C32.3051 22.6813 33.0059 23.0323 33.7514 23.4058C36.5332 24.7992 39.938 26.5046 43.6039 28.3375C45.5801 29.3339 47.4836 30.2931 49.257 31.1867C51.6553 32.3952 53.8155 33.4837 55.595 34.3819C57.1428 35.1631 58.4019 35.8 59.2788 36.2464ZM72.0349 51.5094C72.0345 51.5093 72.0373 51.5097 72.0439 51.5109C72.0385 51.5101 72.0352 51.5095 72.0349 51.5094ZM74.1661 45.7453L74.166 45.7452L74.1622 45.753C74.0385 46.0004 73.9151 46.2778 73.8215 46.517C73.7748 46.6363 73.7333 46.7518 73.7026 46.8527C73.6965 46.8727 73.6897 46.8957 73.6828 46.9208C73.5307 46.8803 73.3328 46.823 73.0691 46.7464L73.0671 46.7458C72.6446 46.6251 72.3152 46.5533 71.9807 46.5413C71.645 46.5293 71.3332 46.5788 70.9517 46.6592L70.9517 46.659L70.9411 46.6615C69.5931 46.976 68.4433 48.0832 68.0396 49.3392L68.0359 49.3506L68.0328 49.3622L68.0098 49.448C67.9695 49.5978 67.9385 49.713 67.9119 49.8043C67.8983 49.8003 67.8847 49.7964 67.8717 49.7927L67.8637 49.7904L67.8557 49.7884L67.7656 49.7659V43.9062V37.9653L71.1611 36.2675L71.1646 36.2658C72.1567 35.76 73.0896 35.3033 73.7877 34.9736C74.0575 34.8462 74.2906 34.7385 74.4777 34.6547C74.4913 34.7941 74.504 34.9693 74.5153 35.1871C74.5585 36.0172 74.5781 37.3821 74.5781 39.5312V44.9555L74.1661 45.7453ZM74.9145 34.4706C74.9273 34.4666 74.9248 34.4682 74.9116 34.4715C74.9128 34.4711 74.9137 34.4708 74.9145 34.4706Z" fill="#2C6A50" stroke="#2C6A50"/>
<path d="M33.75 58.0859C33.4375 58.2812 32.4218 59.6484 31.0937 61.6015C28.75 65.1172 28.5937 65.5859 29.2969 66.4843C30.1172 67.5 31.6406 67.5 32.3437 66.4843C32.6172 66.0156 32.6562 66.2109 32.7344 70.9375L32.8125 75.8593L33.3984 76.3672C34.1797 77.0703 35.039 77.0703 35.8203 76.3672L36.4062 75.8593L36.4844 70.5859L36.5625 65.3515L37.6953 66.875C39.1015 68.789 39.5703 69.1406 40.4687 69.1406C41.6406 69.1406 42.539 67.8906 42.1094 66.7968C41.914 66.289 36.3281 58.789 35.7812 58.2812C35.3125 57.8515 34.3359 57.7343 33.75 58.0859Z" fill="#2C6A50"/>
</svg>
