<svg width="133" height="83" viewBox="0 0 133 83" fill="none" xmlns="http://www.w3.org/2000/svg">
<g clip-path="url(#clip0_29_366)">
<path d="M41.1111 80.0849C39.4525 80.1123 38.0031 79.8593 36.546 79.6632C35.0055 79.4558 33.5232 79.0068 32.068 78.4209C29.8203 77.516 27.5804 76.5928 25.3366 75.6742C25.2416 75.6354 25.1544 75.567 25.011 75.4827C25.3114 74.9721 25.726 74.9995 26.1252 75.0884C26.4314 75.1545 26.7239 75.3095 27.0204 75.4303C28.8689 76.1848 30.7136 76.9484 32.5641 77.6961C33.8216 78.2044 35.1044 78.5965 36.4297 78.7879C38.0961 79.0296 39.7587 79.3031 41.4464 79.1139C43.136 78.9247 44.752 78.4551 46.2324 77.443C46.5502 77.2242 46.9164 77.0487 47.1102 76.4811C46.773 76.4583 46.5095 76.4218 46.2479 76.4241C44.318 76.4378 42.4075 76.1665 40.5027 75.8588C39.7451 75.7357 38.9952 75.4964 38.2589 75.2434C35.9066 74.4364 33.5135 73.8597 31.0934 73.4129C30.1284 73.2351 29.177 72.9502 28.2159 72.7359C27.5843 72.5946 27.0378 72.2504 26.4042 71.7922C26.6193 71.6737 26.753 71.5369 26.8848 71.5392C27.1967 71.5438 27.5106 71.5962 27.8187 71.6646C29.6382 72.0703 31.4577 72.4715 33.2713 72.9069C34.6393 73.2374 36.0248 73.5155 37.3559 73.9988C40.1927 75.0268 43.0973 75.412 46.0425 75.485C47.2303 75.5146 48.42 75.4713 49.6078 75.4439C50.3151 75.428 50.9933 75.2206 51.6482 74.922C52.6015 74.4843 53.27 73.691 53.6905 72.6584C53.489 72.1456 53.148 72.0247 52.8089 71.9245C51.656 71.5871 50.5011 71.2908 49.3056 71.2019C46.2014 70.9671 43.0914 70.8007 40.0086 70.2513C38.7646 70.0302 37.4993 69.9595 36.267 69.6815C34.8292 69.3578 33.4089 68.911 31.9944 68.4551C31.5332 68.3069 31.0953 68.006 30.6845 67.7074C30.2776 67.4111 30.0199 66.9689 30.1536 66.3534C30.2912 65.7266 30.6594 65.3596 31.1864 65.2821C31.7386 65.2023 32.3044 65.1385 32.8567 65.1818C33.8313 65.2593 34.8118 65.3596 35.7709 65.5693C37.7532 66.0024 39.7335 66.007 41.7254 65.7494C42.8725 65.6012 44.0235 65.5032 45.1706 65.3573C45.8991 65.2638 46.6277 65.1453 47.3505 65.0017C48.329 64.8102 48.856 64.4729 49.4199 63.7298C49.3656 63.4631 49.1564 63.5201 49.0072 63.4836C45.6841 62.6994 42.3629 61.9085 39.0359 61.154C37.6292 60.8348 36.205 60.632 34.7963 60.322C33.8352 60.1122 32.876 59.8592 31.944 59.5264C31.4209 59.3395 30.9268 58.9885 30.4636 58.6329C30.1827 58.4163 29.9463 58.0767 29.7603 57.7393C29.3669 57.0281 29.4173 56.0799 29.8765 55.4371C30.0974 55.1248 30.3648 54.8421 30.6497 54.6119C31.4848 53.9372 32.3258 53.2693 33.19 52.647C34.2964 51.8492 35.3737 51.0149 36.3232 49.9641C36.7863 49.4535 37.2126 48.9041 37.4335 48.1929C37.511 47.9422 37.5013 47.655 37.5439 47.272C37.2939 47.313 37.1234 47.3039 36.9781 47.3746C36.5576 47.5752 36.1488 47.8077 35.7341 48.0288C34.8447 48.5052 33.965 49.0135 33.0621 49.4535C31.3511 50.2855 29.6324 51.0947 27.904 51.8788C25.7764 52.8453 23.5655 53.463 21.3178 53.8779C19.0043 54.3064 16.6849 54.6826 14.3655 55.0723C14.0554 55.1248 13.7377 55.1476 13.4238 55.1476C11.6043 55.1476 9.78482 55.1749 7.96728 55.1225C6.45396 55.0792 5.00458 54.5709 3.54745 54.1355C3.32462 54.0694 3.18511 53.8939 3.15604 53.6226C3.13085 53.3696 3.34012 53.0527 3.5959 53.0299C3.86911 53.0049 4.15201 53.0322 4.42328 53.0824C5.63045 53.3012 6.82987 53.6477 8.04479 53.7389C10.5192 53.9281 12.9994 54.0329 15.4699 53.5246C17.1208 53.1849 18.7931 52.9844 20.4517 52.6857C23.4318 52.1478 26.35 51.3454 29.0957 49.8159C29.6634 49.499 30.2602 49.2574 30.8531 49.009C32.4343 48.3434 33.9825 47.5888 35.4803 46.693C35.7922 46.5061 36.1061 46.326 36.4336 46.1847C36.6933 46.073 36.9703 45.9887 37.2455 45.9659C38.2395 45.8815 38.8479 46.6383 38.6968 47.8054C38.5728 48.7673 38.1853 49.5902 37.6195 50.2991C36.7281 51.4161 35.7225 52.3666 34.6199 53.1781C33.6414 53.8961 32.6668 54.621 31.6999 55.3618C31.4073 55.5852 31.1321 55.8451 30.8783 56.1255C30.5257 56.5175 30.5334 56.8663 30.8686 57.3039C31.2813 57.8419 31.8123 58.1701 32.3974 58.3274C33.7596 58.6899 35.1218 59.066 36.4995 59.3327C39.0165 59.8205 41.5239 60.3562 43.9886 61.1334C44.3878 61.2588 44.7908 61.3751 45.2578 61.5164C45.2675 61.2839 45.3023 61.1243 45.2752 60.983C44.9342 59.221 44.5873 57.4589 44.2327 55.6992C43.791 53.4995 43.3879 51.2861 42.8783 49.107C42.3765 46.9597 42.0393 44.7805 41.7293 42.59C41.5859 41.5779 41.3999 40.5749 41.2371 39.5902C41.1208 39.4967 41.0433 39.4033 40.9484 39.3668C39.1328 38.6305 37.3056 37.9239 35.4977 37.1626C33.8371 36.465 32.1165 36.1345 30.3803 35.8997C27.9486 35.5738 25.5148 35.2729 23.0811 34.9697C22.6994 34.9218 22.3138 34.9173 21.9282 34.8899C20.1126 34.7668 18.297 34.6392 16.4814 34.5184C14.4197 34.3816 12.358 34.3565 10.2944 34.5366C8.75979 34.6711 7.22128 34.7532 5.70989 35.1179C4.99102 35.2911 4.28183 35.5054 3.56683 35.7037C3.36337 35.7607 3.16379 35.8473 2.9584 35.8769C2.73557 35.9066 2.50499 35.8086 2.4643 35.5373C2.43135 35.323 2.4643 35.0221 2.57668 34.8671C2.72588 34.662 2.96615 34.5138 3.19092 34.4295C3.88848 34.1696 4.58798 33.8824 5.30686 33.732C6.71748 33.4333 8.1378 33.2054 9.57555 33.1553C10.6936 33.1165 11.8116 32.9615 12.9277 32.9843C14.8848 33.0253 16.8418 33.1575 18.7969 33.2601C19.5662 33.3011 20.3335 33.349 21.1008 33.4197C22.494 33.5473 23.8872 33.6773 25.2784 33.8323C26.879 34.0123 28.4775 34.2266 30.0761 34.4135C32.2405 34.6665 34.3642 35.1156 36.4084 36.0251C37.7474 36.62 39.1095 37.1466 40.464 37.6982C40.617 37.7598 40.7798 37.7826 40.931 37.8213C40.9755 37.6777 41.0278 37.5979 41.0181 37.5341C39.8672 29.9663 38.2027 22.5193 37.1971 14.9195C37.1874 14.8488 37.1195 14.7896 37.0382 14.6597C36.5596 14.9218 36.0655 15.193 35.5714 15.462C34.868 15.8427 34.1394 16.1185 33.3585 16.1618C33.1841 16.1709 33.0078 16.1892 32.8354 16.1709C32.0545 16.0934 31.6921 15.5008 31.9479 14.6391C32.2153 13.7387 32.6164 12.9181 33.2132 12.2525C33.6957 11.7146 34.182 11.1835 34.6684 10.6501C35.5636 9.66762 36.4607 8.68744 37.3579 7.70727C38.4875 6.4718 39.5416 5.15655 40.4194 3.65666C40.7372 3.11414 41.0472 2.56251 41.1208 1.88323C41.179 1.35667 41.024 1.12189 40.5725 1.04895C40.0067 0.960047 39.4467 0.985121 38.939 1.32248C38.4546 1.64389 37.9508 1.95162 37.5226 2.36192C36.3309 3.50621 35.1858 4.71661 33.9999 5.86774C33.4632 6.38974 32.8857 6.86159 32.3064 7.31976C31.5797 7.89191 30.8299 8.42075 30.0935 8.97238C28.4698 10.1873 26.784 11.2746 25.0769 12.3118C24.5809 12.615 24.0771 12.9045 23.5888 13.2213C22.6994 13.798 21.779 14.2858 20.816 14.671C19.8568 15.054 18.9016 15.4643 17.9812 15.9589C16.216 16.9118 14.3364 17.3973 12.4549 17.8258C9.91658 18.4048 7.35692 18.8516 4.80306 19.3257C3.5959 19.5491 2.37904 19.7132 1.16606 19.8796C0.947098 19.9093 0.718453 19.8272 0.497559 19.7976C0.522748 19.4511 0.681637 19.3827 0.863779 19.3576C2.88283 19.1001 4.85732 18.553 6.84731 18.1108C9.7635 17.4634 12.6971 16.8913 15.5552 15.9316C16.6248 15.5714 17.6498 15.0221 18.6942 14.5594C19.446 14.2266 20.2017 13.9029 20.9477 13.5541C21.498 13.2965 22.0503 13.0321 22.5793 12.7153C25.7609 10.8187 28.8786 8.79002 31.8588 6.47408C32.2386 6.18003 32.628 5.89738 32.9768 5.55773C34.2421 4.32454 35.5074 3.09135 36.7417 1.81485C37.3831 1.15152 38.0961 0.665996 38.8751 0.276207C39.5881 -0.08167 40.3186 -0.0406396 41.0395 0.134879C41.8145 0.324075 42.2001 1.05806 42.0664 1.98809C41.9482 2.81325 41.6246 3.54041 41.2235 4.22653C40.3477 5.72642 39.3149 7.06446 38.1872 8.30449C37.9586 8.55523 37.7357 8.81054 37.447 9.1365C37.6621 9.28467 37.8152 9.46246 37.9896 9.49893C38.4837 9.60379 38.6891 9.94799 38.7685 10.4996C39.0378 12.4053 39.3227 14.3086 39.6095 16.212C39.7373 17.0577 39.8865 17.8988 40.0319 18.7764C40.3341 18.7969 40.5725 18.8265 40.8108 18.8288C42.0703 18.8379 43.3298 18.8835 44.5873 18.8379C46.6141 18.765 48.6409 18.635 50.6658 18.5188C53.115 18.3797 55.5565 18.48 58.0018 18.7399C59.4958 18.8972 61.0072 18.863 62.5108 18.8562C65.9734 18.8448 69.436 18.806 72.8987 18.7627C74.7162 18.7399 76.5357 18.6875 78.3532 18.6419C78.5567 18.6373 78.7601 18.6009 79.1031 18.5644C78.7969 18.227 78.5838 17.9808 78.359 17.7483C77.6886 17.0531 77.1887 16.2234 76.8999 15.2272C76.495 13.8322 76.8515 12.4736 77.8455 11.7602C78.4578 11.3202 79.1515 11.1971 79.8646 11.286C80.1049 11.3157 80.3412 11.3932 80.6145 11.4547C80.8431 10.9304 80.568 10.5065 80.5098 9.99358C80.13 9.97762 79.7851 9.95027 79.4422 9.95027C74.6852 9.93431 69.9282 9.93659 65.1712 9.90468C63.1774 9.891 61.1835 9.83858 59.1916 9.75196C56.287 9.62659 53.3863 9.73372 50.4837 9.82034C47.581 9.90696 44.6784 9.93887 41.7893 9.51261C41.3069 9.44195 40.8224 9.41232 40.34 9.28239C40.7934 9.25731 41.2449 9.22996 41.6983 9.20944C42.4326 9.17753 43.167 9.12738 43.9014 9.12738C45.1415 9.12738 46.277 8.80826 47.4125 8.13809C49.0324 7.183 50.7433 6.43305 52.4388 5.66943C53.2507 5.30471 54.1091 5.07221 54.9597 4.84882C55.3976 4.73257 55.8646 4.71889 56.3161 4.74168C57.1725 4.78499 57.5814 5.35942 57.4651 6.37606C57.4147 6.81372 57.252 7.2377 57.1221 7.6594C57.0543 7.87823 56.9477 8.08339 56.8237 8.382C57.1841 8.41163 57.4535 8.45038 57.7228 8.45494C59.0172 8.46862 60.3135 8.42758 61.6059 8.48685C65.4522 8.66237 69.3004 8.46178 73.1447 8.5142C76.0125 8.55296 78.8802 8.64869 81.748 8.7148C82.306 8.72847 82.8641 8.7148 83.3175 8.7148C83.9104 8.22243 84.4026 7.7597 84.9393 7.38359C85.8016 6.77725 86.7569 6.53791 87.7587 6.60857C89.2604 6.71342 90.7369 6.98468 92.2114 7.37675C94.773 8.05603 97.2222 9.17069 99.7606 9.9252C102.729 10.8096 105.483 12.3118 108.219 13.8755C110.232 15.0266 112.2 16.269 114.126 17.6138C115.446 18.5347 116.847 19.3006 118.211 20.1349C119.389 20.8552 120.575 21.5619 121.745 22.2981C122.145 22.5489 122.517 22.8589 122.891 23.1621C122.956 23.2168 122.968 23.3649 123.036 23.561C122.367 23.602 121.833 23.3262 121.315 23.0048C119.864 22.1021 118.409 21.2017 116.969 20.2694C115.07 19.0431 113.171 17.8144 111.297 16.5357C110.141 15.747 108.883 15.2409 107.672 14.6072C107.066 14.2904 106.44 14.0191 105.849 13.6658C104.155 12.6606 102.365 11.963 100.553 11.343C98.3403 10.584 96.1352 9.78159 93.8972 9.12966C92.2734 8.65781 90.607 8.37288 88.9523 8.06287C88.3361 7.94662 87.6967 7.96485 87.0669 7.98309C86.3558 8.0036 85.914 8.24523 85.3114 8.85612C85.6427 8.89032 85.9004 8.92451 86.1601 8.94047C86.8945 8.98378 87.6269 9.02253 88.3613 9.05216C89.0995 9.08179 89.52 9.52857 89.6711 10.3651C89.7874 11.0057 89.9172 11.6416 90.0548 12.3574C91.0469 12.697 92.0797 13.0503 93.1105 13.4082C93.6802 13.6043 94.2518 13.7957 94.8157 14.0146C95.0792 14.1171 95.3408 14.2516 95.5772 14.418C96.1643 14.8329 96.2185 15.5167 95.6818 16.0319C95.4183 16.2849 95.0908 16.4832 94.7653 16.6018C93.7984 16.9551 92.8237 17.2788 91.8045 17.3585C91.5662 17.3768 91.3317 17.4657 91.0876 17.5249C90.9364 18.2498 91.2581 18.8425 91.3569 19.4739C91.4519 20.0734 91.6146 20.6569 91.7483 21.2519C92.5815 21.5049 93.467 21.3476 94.2421 22.0588C94.1045 22.1865 94.0173 22.3301 93.9146 22.3506C93.3353 22.4623 92.752 22.5443 92.1087 22.6469C92.1591 23.7023 92.5098 24.6802 92.6338 25.6011C93.1241 26.0798 93.7829 25.7652 94.1452 26.4308C93.7383 26.5562 93.3721 26.6679 93.0156 26.7773C93.0097 27.7461 93.5736 29.8386 93.8643 31.1858C94.1801 32.6447 94.4281 34.124 94.7885 35.5966C94.9939 35.6376 95.1606 35.6969 95.3272 35.7014C97.7047 35.7538 100.084 35.8359 102.462 35.8291C104.279 35.8245 106.103 35.7903 107.912 35.6125C109.581 35.4484 111.243 35.1293 112.892 34.7805C116.097 34.1035 119.308 33.5314 122.579 33.602C122.927 33.6089 123.284 33.5884 123.625 33.6613C124.105 33.7616 124.373 34.1491 124.526 34.7532C124.04 34.9469 123.606 35.0039 123.152 34.9948C120.416 34.9424 117.707 35.241 115.01 35.7835C112.772 36.2325 110.522 36.6155 108.275 36.9939C107.655 37.0987 107.019 37.1261 106.391 37.1284C103.033 37.1375 99.6753 37.1284 96.3174 37.1238C95.9724 37.1238 95.6256 37.1238 95.3233 37.1238C95.1024 37.3996 95.2071 37.6458 95.2516 37.8669C96.1933 42.5923 97.2494 47.2834 98.443 51.929C98.4624 52.0019 98.5127 52.0657 98.5728 52.1797C98.9177 52.3484 99.3014 52.2207 99.6715 52.1683C102.415 51.7922 105.142 51.2975 107.845 50.6274C108.868 50.3744 109.912 50.2308 110.953 50.0826C111.365 50.0233 111.79 50.0712 112.208 50.0894C113.291 50.1419 114.375 50.1806 115.454 50.2695C117.267 50.4199 119.079 50.5772 120.889 50.7801C122.594 50.9716 124.297 51.1881 125.993 51.4708C127.686 51.7512 129.372 52.1159 131.056 52.4646C131.397 52.5353 131.73 52.6835 132.05 52.8407C132.199 52.9137 132.333 53.0755 132.436 53.2283C132.587 53.4539 132.441 53.8779 132.201 53.9053C131.996 53.928 131.784 53.9121 131.579 53.8756C130.372 53.65 129.167 53.4129 127.96 53.1804C126.233 52.8453 124.497 52.6493 122.745 52.5832C121.666 52.5421 120.596 52.2618 119.517 52.1478C118.194 52.0087 116.868 51.9153 115.541 51.8355C114.702 51.7853 113.873 51.7192 113.041 51.5323C111.9 51.2747 110.738 51.3409 109.592 51.5278C105.922 52.1227 102.256 52.7473 98.5864 53.3491C97.0634 53.5975 95.5287 53.7662 94.0135 54.0648C92.256 54.409 90.514 54.8581 88.7643 55.2524C87.4603 55.5465 86.1504 55.8041 84.8502 56.1232C82.8467 56.6155 80.9981 57.5957 79.229 58.7742C78.7814 59.0728 78.3939 59.5173 78.0199 59.9436C77.7099 60.2946 77.7545 60.657 78.0626 61.0149C78.2738 61.2611 78.5276 61.3887 78.8182 61.3728C79.5836 61.334 80.3626 61.3614 81.1124 61.2064C82.2809 60.9625 83.4241 60.5636 84.5848 60.2718C86.3616 59.8228 88.1423 59.3805 89.9676 59.3122C90.5605 59.2894 91.167 59.2529 91.7464 59.3691C93.4632 59.7156 93.7577 60.5545 92.9516 62.2686C92.3606 63.5223 91.446 64.4432 90.361 65.0747C88.5454 66.13 86.7375 67.2014 84.8231 68.0174C82.8854 68.8426 80.9884 69.7977 79.0643 70.6662C77.8572 71.211 76.6326 71.6965 75.4176 72.2094C74.8925 72.4305 74.3655 72.6516 73.8423 72.8818C73.5962 72.989 73.4238 73.1896 73.3966 73.5087C73.3656 73.8939 73.5885 74.1401 73.8326 74.2814C74.038 74.4022 74.3054 74.4524 74.5379 74.425C75.3014 74.3361 76.0745 74.2655 76.8224 74.0671C78.4559 73.6318 80.0971 73.2329 81.6957 72.6128C82.8544 72.1638 84.0558 71.872 85.2397 71.5096C87.4447 70.8349 89.5665 69.9003 91.6049 68.6967C92.6048 68.1063 93.6124 67.5365 94.6238 66.9757C95.3059 66.5973 95.366 66.5973 96.2302 66.6156C96.0461 66.7934 95.9337 66.9301 95.8019 67.0259C95.5345 67.2219 95.2652 67.4157 94.9823 67.5752C92.1843 69.1663 89.4154 70.8235 86.4643 72.027C84.4472 72.8499 82.3739 73.4312 80.3587 74.2427C78.7989 74.8718 77.1983 75.2753 75.5649 75.5328C75.0708 75.6103 74.5941 75.64 74.1116 75.4781C73.6369 75.3186 73.1525 75.2821 72.6584 75.3414C72.2767 75.387 71.8891 75.3961 71.5055 75.3801C68.3238 75.2616 65.1441 75.1294 61.9644 75.0086C60.6371 74.9584 59.3078 74.9174 57.9805 74.8992C56.6164 74.8809 55.2523 74.8992 53.8882 74.8946C53.5336 74.8946 53.2158 74.9379 52.9038 75.2023C51.935 76.0207 50.8014 76.2874 49.6427 76.399C49.0885 76.4538 48.5266 76.4082 47.955 76.4082C47.5714 77.3108 46.9649 77.8465 46.2789 78.2636C45.0291 79.0273 43.7057 79.5379 42.328 79.8638C42.1924 79.8957 42.0587 79.9368 41.9037 79.9801C41.3689 80.9625 40.7042 81.7968 39.78 82.2824C39.4622 82.4488 39.1347 82.6152 38.7956 82.6949C37.0982 83.0984 35.4028 83.1577 33.6976 82.7086C31.8161 82.2117 30.016 81.4184 28.2024 80.6753C25.6292 79.6222 23.085 78.4756 20.5873 77.1855C19.2775 76.5085 17.9327 75.9249 16.6461 75.1795C15.6346 74.5914 14.5651 74.2404 13.4335 74.1264C12.5634 74.0375 11.7012 73.8574 10.8331 73.7457C9.32559 73.5497 7.83552 73.6774 6.34933 74.0421C5.18672 74.327 4.01056 74.5253 2.83827 74.7601C2.73557 74.7806 2.63287 74.8103 2.52824 74.8194C2.16396 74.8513 1.93337 74.6963 1.86749 74.384C1.79386 74.0307 1.98763 73.7685 2.42167 73.6796C4.21014 73.3081 5.99667 72.9092 7.79289 72.5946C8.51177 72.4692 9.26358 72.4464 9.98827 72.5239C11.4144 72.6767 12.8308 72.9434 14.255 73.1417C15.0999 73.2579 15.8885 73.5702 16.6616 73.9646C16.9503 74.1127 17.2352 74.2677 17.52 74.425C19.2891 75.4052 21.0524 76.4036 22.8292 77.361C23.6217 77.7872 24.4375 78.1634 25.2591 78.5121C27.4273 79.433 29.5994 80.3448 31.7793 81.227C33.5465 81.9404 35.3601 82.3348 37.2416 82.141C37.5536 82.1091 37.8714 82.1068 38.1853 82.116C39.4254 82.1547 40.2818 81.4116 41.1073 80.11L41.1111 80.0849ZM80.2812 20.3105C79.4867 20.3013 78.8647 20.2922 78.2408 20.2899C73.3811 20.274 68.5215 20.3355 63.6618 20.1577C60.3425 20.0369 57.0194 20.0574 53.6983 20.0483C49.6776 20.0346 45.655 20.0552 41.6343 20.0643C41.2565 20.0643 40.8786 20.0871 40.4988 20.0985C40.3845 20.5612 40.493 20.9077 40.5609 21.2633C40.8166 22.5854 41.0782 23.9075 41.3088 25.2364C41.6382 27.1283 41.9385 29.0271 42.2583 30.9237C42.9093 34.7942 43.6088 38.6556 44.2076 42.5375C44.9884 47.5934 45.7771 52.647 46.8021 57.6436C47.1044 59.1161 47.4299 60.5795 47.7535 62.0977C48.1275 62.1797 48.4685 62.2435 48.8056 62.3279C49.1816 62.4213 49.5691 62.4829 49.9217 62.6447C50.5166 62.916 50.6774 63.5474 50.286 64.131C50.0303 64.5093 49.6931 64.8239 49.3598 65.1157C49.0866 65.355 48.765 65.5169 48.4239 65.7402C48.6603 67.2607 48.9917 68.7127 49.3656 70.1328C49.5187 70.1852 49.6156 70.2285 49.7164 70.249C50.7801 70.4815 51.8459 70.6981 52.9058 70.9511C53.208 71.0241 53.5103 71.1654 53.7835 71.3386C54.4249 71.7421 54.6187 72.4054 54.3668 73.2078C54.2989 73.4221 54.2292 73.634 54.1517 73.8734C54.3203 73.903 54.423 73.9349 54.5257 73.9349C57.1473 73.9441 59.769 73.9418 62.3907 73.96C63.4389 73.9669 64.4872 74.0284 65.5355 74.0466C66.7582 74.0671 67.9828 74.0694 69.2055 74.0763C70.1142 74.0808 71.023 74.0968 71.9318 74.0763C72.1972 74.0717 72.4627 73.9691 72.7165 73.9121C72.701 72.8066 72.92 72.3758 73.6602 72.0247C73.9179 71.9017 74.193 71.8242 74.4585 71.7239C75.5881 71.2953 76.7333 70.9146 77.8417 70.42C79.1128 69.8501 80.3451 69.1617 81.6065 68.5531C82.1859 68.2727 82.8002 68.0904 83.3815 67.8146C84.4491 67.3085 85.5129 66.7865 86.5651 66.2349C87.3576 65.8178 88.1423 65.3733 88.8786 64.7601C88.7469 63.5178 88.6248 62.2983 88.4833 61.081C88.4678 60.9397 88.3516 60.8143 88.2741 60.6662C86.9196 60.8622 85.6253 61.1699 84.3387 61.546C83.2555 61.8629 82.1801 62.2504 81.0795 62.4487C80.225 62.6014 79.3337 62.5923 78.4695 62.508C77.7254 62.435 77.1964 61.8766 76.9484 61.0126C76.7159 60.2011 76.9775 59.5378 77.4793 59.0227C77.9754 58.5121 78.5063 58.0288 79.0701 57.6322C79.6979 57.19 80.3684 56.823 81.0407 56.4856C82.8118 55.5943 84.6216 54.849 86.5612 54.6392C86.7956 54.6142 87.0223 54.5002 87.2626 54.425C87.375 53.8437 87.2723 53.3194 87.2045 52.7974C87.0282 51.4571 86.8576 50.1145 86.6426 48.781C86.1659 45.8337 85.7183 42.8772 85.1564 39.9503C84.5479 36.7842 83.8562 33.6385 83.4241 30.429C83.0249 27.4657 82.6335 24.5001 82.2324 21.5345C82.1956 21.2678 82.1123 21.008 82.0309 20.666C81.7771 20.8142 81.591 20.9077 81.4167 21.0239C80.7501 21.473 80.101 21.9676 79.417 22.3757C78.64 22.8384 77.8358 23.2418 77.0317 23.6408C76.8631 23.7251 76.648 23.6727 76.3652 23.6909C76.5764 22.9273 77.0976 22.7062 77.5084 22.3779C77.9405 22.0315 78.4191 21.767 78.8628 21.4411C79.293 21.1242 79.7832 20.8986 80.2792 20.3173L80.2812 20.3105ZM83.3175 22.0155C83.5345 23.4105 83.7264 24.6164 83.9066 25.8245C84.2592 28.1723 84.5867 30.5247 84.9626 32.868C85.1893 34.2813 85.4858 35.6786 85.757 37.0805C86.1698 39.205 86.4662 41.3522 86.7356 43.5109C87.1192 46.6018 87.6637 49.6632 88.1462 52.7359C88.2218 53.2123 88.338 53.6796 88.4465 54.1993C88.774 54.1674 89.055 54.1788 89.3204 54.1058C91.7386 53.4402 94.1801 52.9342 96.6487 52.606C96.9122 52.5718 97.168 52.4464 97.416 52.3689C97.3036 51.9449 97.2087 51.5939 97.1196 51.2383C96.1507 47.4156 95.2846 43.561 94.4901 39.6837C93.2151 33.4493 91.8181 27.2492 90.7989 20.9464C90.7485 20.6387 90.6245 20.3492 90.5625 20.1463C89.9579 20.1919 89.4425 20.2649 88.9251 20.2649C87.7005 20.2649 86.4779 20.2284 85.2533 20.2193C85.0304 20.2193 84.7688 20.1235 84.5537 20.4814C84.6739 20.6592 84.794 20.8507 84.9277 21.0308C85.7105 22.0816 86.4972 23.1279 87.2801 24.1787C87.3944 24.3337 87.5145 24.4864 87.6056 24.6597C87.7373 24.9127 87.7005 25.282 87.5261 25.4529C87.3576 25.6171 87.158 25.6968 86.9448 25.5623C86.7608 25.4461 86.565 25.339 86.4081 25.184C85.6098 24.3884 84.8192 23.5769 84.0286 22.77C83.8271 22.5648 83.6314 22.3506 83.3156 22.0155H83.3175ZM46.2305 66.0958C44.3626 66.3056 42.5547 66.5495 40.743 66.6999C39.2781 66.8207 37.8074 66.823 36.3464 66.5654C35.3446 66.3876 34.3409 66.2212 33.3314 66.1095C32.7443 66.0457 32.1455 66.0753 31.5546 66.1118C31.2833 66.1278 30.9926 66.2212 30.8977 66.652C31.1728 67.2265 31.6844 67.4065 32.1785 67.5935C33.8778 68.234 35.614 68.7081 37.3811 69.0022C38.9041 69.2552 40.433 69.4717 41.9618 69.6495C43.3879 69.8159 44.8199 69.9185 46.2499 70.0302C46.4785 70.0484 46.713 69.9687 46.9358 69.9368C46.9377 68.7537 46.6355 67.092 46.2344 66.1004L46.2305 66.0958ZM82.4107 13.4789C82.62 13.1689 82.7924 12.8612 83.0075 12.599C83.4997 11.9995 84.0848 11.5482 84.765 11.302C86.3616 10.7253 87.8962 11.9402 87.9834 13.871C88.028 14.8602 87.7005 15.7287 87.1386 16.449C86.7859 16.9004 86.3693 17.2833 85.9857 17.7027C85.8675 17.8327 85.6679 17.9125 85.7318 18.1791C86.8518 18.3569 89.365 18.3319 90.1071 18.1199C89.8746 16.8411 89.6382 15.5623 89.4096 14.279C89.1828 13.007 89.1266 11.6849 88.6732 10.4791C86.6096 10.1144 84.577 10.2329 82.5618 10.0414C82.182 10.005 81.7964 10.0369 81.4128 10.0414C81.3818 10.0414 81.343 10.0665 81.3178 10.0916C81.2946 10.1144 81.2849 10.1577 81.221 10.2922C81.5891 11.2496 81.5659 12.4691 82.4126 13.4743L82.4107 13.4789ZM56.6028 5.87002C56.3587 5.81759 56.1572 5.7173 55.9653 5.74237C55.448 5.8062 54.9268 5.88142 54.421 6.02275C52.4814 6.56754 50.6755 7.54543 48.858 8.48457C48.8289 8.49825 48.8366 8.61222 48.8289 8.67833C48.8618 8.692 48.8948 8.72164 48.9258 8.71936C50.9448 8.63958 52.9639 8.55751 54.9829 8.47089C55.0856 8.46634 55.2135 8.47089 55.2872 8.40707C55.9925 7.78022 56.599 7.07814 56.6009 5.86774L56.6028 5.87002ZM83.4919 18.1176C84.3484 17.6024 85.0827 17.0485 85.7454 16.3738C86.3907 15.715 86.5728 14.8694 86.3655 13.9143C86.2434 13.3512 85.7803 13.0367 85.3056 13.2031C85.042 13.2965 84.7863 13.4538 84.5596 13.6384C83.4086 14.573 82.9823 16.2895 83.49 18.1176H83.4919ZM81.5426 17.9945C81.6472 16.8844 81.4496 15.9293 81.2616 14.9788C81.2074 14.7098 81.0524 14.4591 80.9109 14.2288C80.3626 13.3307 79.7096 13.0709 78.8066 13.3718C78.3668 13.5176 78.142 13.8641 78.2679 14.3861C78.3803 14.8488 78.5528 15.323 78.7931 15.7082C79.4751 16.7955 80.4517 17.4132 81.5426 17.9945ZM36.3949 10.2398C35.4183 11.3293 34.4921 12.3186 33.6143 13.3626C33.2558 13.7912 32.9729 14.3223 32.8993 14.9446C32.9865 15.0107 33.0407 15.0859 33.0969 15.0882C33.2694 15.0928 33.4438 15.0836 33.6162 15.0517C34.8002 14.8374 35.7961 14.051 36.9413 13.6065C36.8696 12.4622 36.8076 11.3818 36.3968 10.2398H36.3949ZM90.671 16.2142C91.9227 16.4604 94.0948 15.9795 95.0559 15.2272C94.8157 15.0905 94.6103 14.9537 94.3932 14.8557C93.5174 14.4659 92.6048 14.1992 91.758 13.6977C91.3104 13.4333 90.7814 13.3535 90.2176 13.1689C90.1982 14.2972 90.4307 15.2637 90.671 16.2142ZM92.4691 60.9693C91.6495 60.322 90.5993 60.2057 89.644 60.657C89.4832 61.2269 89.6653 61.7785 89.7351 62.337C89.8068 62.916 89.739 63.5428 90.08 64.0489C91.4402 63.1941 92.1436 62.28 92.4672 60.9716L92.4691 60.9693Z" fill="#134238"/>
<path d="M96.6355 70.7776C96.2073 71.4546 95.7306 71.8421 95.1842 72.143C93.5391 73.0479 91.8979 73.9666 90.2567 74.8806C88.7046 75.7445 87.1002 76.4307 85.428 76.9002C85.1277 76.9846 84.839 77.1168 84.5716 77.2171C84.4437 77.7049 84.5638 78.0217 84.9087 78.1676C85.1684 78.277 85.4474 78.3454 85.7225 78.3773C86.7805 78.4981 87.8094 78.3135 88.8306 77.983C91.3631 77.1647 93.822 76.1252 96.1918 74.7849C97.9861 73.7682 99.7978 72.7972 101.517 71.6028C102.057 71.2266 102.635 70.9257 103.206 70.6203C105.086 69.6151 106.93 68.53 108.653 67.1897C110.449 65.7901 112.48 65.1906 114.553 64.8054C117.681 64.2241 120.827 64.4065 123.968 64.7256C125.501 64.8806 127.03 65.0675 128.563 65.2339C129.229 65.3046 129.838 65.5713 130.407 65.9018C130.438 66.2984 130.233 66.3759 130.025 66.4192C128.876 66.6609 127.725 66.5446 126.578 66.3919C123.763 66.0181 120.942 65.7331 118.105 65.7878C116.179 65.8243 114.274 66.0409 112.402 66.6495C111.211 67.037 110.073 67.5407 109.04 68.3249C107.213 69.7108 105.262 70.8163 103.299 71.8945C102.793 72.1726 102.28 72.4439 101.803 72.7858C99.6156 74.3495 97.2749 75.5462 94.9517 76.7817C92.7175 77.9693 90.3826 78.8241 87.9896 79.4532C87.1642 79.6698 86.329 79.7063 85.4861 79.6196C84.4107 79.5102 83.595 79.0338 83.3915 77.6479C83.3818 77.5772 83.314 77.5157 83.2288 77.3744C82.9245 77.4245 82.5835 77.4883 82.2425 77.5385C81.3337 77.673 80.4211 77.7414 79.553 77.3197C79.1732 77.135 78.8186 76.8546 78.4873 76.5629C78.3168 76.4147 78.2916 76.1412 78.4175 75.8904C78.5396 75.6488 78.7334 75.5462 78.9484 75.5941C79.15 75.6397 79.3418 75.7559 79.5297 75.8585C80.2447 76.2529 80.9772 76.3418 81.7716 76.2415C83.8314 75.9816 85.8582 75.5462 87.7842 74.6481C89.2762 73.9529 90.7237 73.1277 92.1866 72.3459C93.0779 71.8717 93.9596 71.3725 94.8432 70.8847C95.2966 70.634 95.7713 70.5291 96.2693 70.5861C96.3623 70.5975 96.4495 70.6796 96.6374 70.7821L96.6355 70.7776Z" fill="#134238"/>
<path d="M50.4551 67.2717C50.6275 66.8933 50.8697 66.8363 51.1158 66.8796C52.0285 67.0392 52.9295 66.8477 53.8363 66.8181C54.9524 66.7793 56.0724 66.8089 57.1904 66.8477C58.169 66.8796 59.1455 67.0141 60.1221 67.0187C64.8074 67.0392 69.4946 67.0323 74.1799 67.0301C74.6333 67.0301 75.0906 67.0118 75.5421 66.9639C76.3792 66.8728 77.2046 66.8409 78.0495 66.9639C78.6656 67.0528 79.3031 66.9206 79.9329 66.8887C80.8726 66.8409 81.8124 66.793 82.9033 66.7383C82.7406 67.0255 82.6882 67.2352 82.5778 67.2922C82.3278 67.4221 82.0527 67.5179 81.7814 67.5589C80.8455 67.7002 79.9077 67.8188 78.9679 67.9373C75.3813 68.3932 71.7908 68.5436 68.1809 68.3658C66.0533 68.261 63.9161 68.3772 61.7827 68.3886C61.2227 68.3909 60.6647 68.3955 60.1047 68.3658C57.6942 68.2427 55.2857 68.1196 52.8772 67.9669C52.2184 67.9259 51.5615 67.8028 50.9104 67.6683C50.7419 67.6341 50.6004 67.4084 50.4551 67.2762V67.2717Z" fill="#134238"/>
</g>
<defs>
<clipPath id="clip0_29_366">
<rect width="132" height="83" fill="white" transform="translate(0.5)"/>
</clipPath>
</defs>
</svg>
