<svg width="137" height="79" viewBox="0 0 137 79" fill="none" xmlns="http://www.w3.org/2000/svg">
<g clip-path="url(#clip0_29_350)">
<path d="M40.8417 33.3687C41.2921 32.3293 40.6625 31.0567 41.3642 29.9695C42.469 30.8179 41.9166 32.1579 42.2874 33.2564C43.4245 33.5963 44.5741 33.3378 45.7659 33.1103C46.0819 31.745 45.8505 30.4105 45.8655 29.093C45.8804 27.8176 45.8182 26.5422 45.9725 24.8566C46.1715 25.4381 46.2934 25.6432 46.3084 25.8567C46.4054 27.3091 46.485 28.7615 46.5597 30.2167C46.607 31.1381 46.6965 32.0512 46.8906 33.0063C47.8088 33.0428 48.5901 32.9164 49.3092 32.3714C50.1204 31.759 50.9465 31.1719 51.8149 30.5398C51.7527 29.5172 51.678 28.5367 51.6382 27.5507C51.6009 26.6405 51.4093 25.7218 51.6307 24.8453C52.0363 24.6908 52.203 24.9268 52.2304 25.2274C52.32 26.1517 52.3672 27.0815 52.4295 28.0114C52.4668 28.5705 52.4991 29.1267 52.5464 29.888C53.1834 29.475 53.6611 29.166 54.1762 28.8317C54.7435 26.3202 55.8856 24.1318 57.4731 21.9546C56.9257 21.9546 56.5948 21.9012 56.2788 21.963C54.8057 22.2496 53.3402 22.5782 51.8671 22.8676C51.3595 22.9659 50.8444 23.0277 50.3294 23.0474C49.8541 23.0671 49.5008 22.7384 49.4137 22.2917C49.3266 21.8394 49.553 21.3787 49.9935 21.2045C50.3319 21.0725 50.6877 20.9882 51.041 20.9095C53.5168 20.3533 55.9976 19.8139 58.4709 19.2492C59.7076 18.9655 60.1181 18.9543 61.4543 19.356C61.3423 19.6088 61.2951 19.9179 61.1308 20.0499C59.2497 21.5781 57.8986 23.6149 56.7067 25.8117C56.6371 25.941 56.6271 26.1123 56.5351 26.4663C56.8361 26.3034 57.0128 26.2387 57.1571 26.1236C60.984 23.1176 65.2663 21.3 69.7601 20.1117C71.6064 19.6229 73.5248 19.4122 75.4208 19.252C76.3216 19.1762 77.2696 19.429 78.1604 19.6931C81.0492 20.5499 83.9281 21.4601 86.7996 22.3928C87.5361 22.6316 88.2527 22.994 88.942 23.3817C91.3904 24.7526 93.8239 26.1517 96.2574 27.5563C96.668 27.7923 97.0586 28.0845 97.4368 28.385C100.741 31.0005 104.277 33.1721 107.917 35.1077C109.634 36.0207 111.495 36.5741 113.282 37.327C114.098 37.6697 114.899 38.0743 115.683 38.5041C115.947 38.6502 116.171 38.9339 116.357 39.2036C116.601 39.5576 116.549 40.1503 116.298 40.5099C116.031 40.8892 115.584 41.0521 115.198 40.906C115.148 40.8864 115.096 40.8723 115.054 40.8414C113.623 39.7233 111.926 39.3497 110.313 38.7738C107.736 37.8523 105.367 36.4365 103.023 34.9784C100.721 33.5485 98.5167 31.9191 96.2723 30.3768C95.919 30.1352 95.5856 29.8543 95.2198 29.6436C92.9704 28.3457 90.7111 27.0731 88.4642 25.7696C87.3569 25.1263 86.1999 24.6684 84.9956 24.32C83.1991 23.8031 81.4076 23.2553 79.6334 22.6457C76.1822 21.4573 75.9359 21.4124 72.3429 21.9771C68.8469 22.5249 65.5425 23.848 62.2381 25.1656C61.6136 25.4156 61.0288 25.823 60.4565 26.2135C58.8242 27.3259 57.2019 28.4469 55.6443 29.7026C52.8325 31.9697 49.9437 34.1132 46.8284 35.8325C46.3681 36.0881 45.9152 36.3775 45.4947 36.709C44.6935 37.3439 44.2556 38.2597 44.0789 39.3244C43.9296 40.215 44.5641 40.7909 45.3081 40.4594C45.5445 40.3526 45.7634 40.1869 45.9749 40.0239C49.6128 37.2371 53.5467 35.0459 57.4234 32.7423C58.4709 32.1186 59.4811 31.4135 60.4988 30.7252C62.1411 29.6155 63.8206 28.6098 65.6893 28.062C66.2815 27.8878 66.8687 27.6462 67.5306 27.9552C67.4435 28.135 67.4062 28.357 67.3017 28.4047C67.0205 28.5367 66.712 28.6014 66.4134 28.6828C64.8906 29.093 63.4997 29.8346 62.2083 30.8235C59.2149 33.1103 56.1096 35.1835 52.8923 37.0433C51.7004 37.7315 50.5533 38.5238 49.3888 39.2738C46.5846 41.0774 44.171 43.426 41.944 46.0386C41.2498 46.8533 40.6999 47.7467 40.5556 48.8957C40.4734 49.5502 40.7297 49.9267 41.312 49.8986C41.7176 49.8789 42.148 49.8255 42.5138 49.6457C43.2653 49.2749 44.0043 48.8507 44.7084 48.3731C47.4953 46.4797 50.1477 44.3643 52.8052 42.2517C55.9354 39.7655 59.2323 37.6248 62.8204 36.0656C64.7911 35.2116 66.6896 34.1497 68.6304 33.2058C69.046 33.0035 69.4988 32.8546 69.9442 32.7844C70.1383 32.7535 70.3647 32.9923 70.5762 33.1075C70.2851 33.9306 69.7053 34.2143 69.1455 34.4981C67.0778 35.5459 65.0249 36.6415 62.9224 37.5939C59.1577 39.3019 55.7413 41.6646 52.524 44.4205C51.8248 45.0188 51.1903 45.7493 50.4264 46.2044C49.0529 47.0247 48.4408 48.4743 47.754 49.8817C47.5127 50.3762 47.2514 50.9071 47.5525 51.5813C48.1397 51.8257 48.7444 51.6909 49.2918 51.3566C50.1054 50.8594 50.9315 50.3621 51.6631 49.7328C53.9747 47.741 56.4729 46.1313 59.1303 44.8194C60.6929 44.0468 62.3053 43.4681 63.9973 43.1675C65.2215 42.9484 66.3412 43.3024 67.4485 43.7996C67.5182 43.8305 67.5406 43.9935 67.6177 44.1676C66.7991 44.7941 65.8361 44.4851 64.9627 44.6761C64.1093 44.8643 63.216 44.8784 62.4023 45.4487C62.1485 46.2184 62.3103 47.0106 62.2953 47.9602C64.0222 47.2831 65.5923 46.6061 67.1972 46.0527C68.7722 45.5105 70.3747 45.0638 71.9771 44.6284C73.6218 44.1817 75.274 43.7322 77.0183 43.9007C76.9262 44.5076 76.5057 44.4738 76.1997 44.5385C74.9331 44.8053 73.6542 45.002 72.3877 45.2689C69.6954 45.842 67.0678 46.7269 64.5447 47.8927C62.161 48.9912 59.9415 50.4885 58.1723 52.6798C57.7941 53.1461 57.4781 53.6911 57.2094 54.2474C57.0725 54.5283 57.0974 54.9132 57.0402 55.2952C57.8389 55.6492 58.5978 55.5284 59.3418 55.3374C60.1953 55.1182 61.0462 54.871 61.8823 54.5788C65.0797 53.4608 68.3194 52.4944 71.4272 51.0504C73.0595 50.2919 74.8187 50.0699 76.5704 49.9267C77.9091 49.8171 79.2478 49.657 80.5864 49.671C82.9055 49.6963 85.2295 49.7553 87.5411 49.9688C88.4916 50.0559 89.4446 50.4829 90.3379 50.9127C91.4725 51.4577 92.5449 52.1741 93.6522 52.795C95.6826 53.9327 97.6881 55.1379 99.7608 56.1689C103.018 57.7871 106.477 58.3714 110.017 58.3826C110.43 58.3826 110.846 58.3349 111.252 58.3939C111.682 58.4585 112.01 58.7506 112.147 59.2451C112.249 59.6159 112.19 59.9727 111.859 60.1328C111.535 60.2873 111.174 60.4306 110.829 60.4306C109.644 60.4362 108.455 60.4418 107.275 60.3295C104.063 60.0289 100.965 59.1973 98.0614 57.582C96.026 56.4526 94.008 55.2868 91.9826 54.1378C91.154 53.6686 90.3329 53.1742 89.4919 52.736C88.5488 52.2443 87.551 52.014 86.506 51.9156C83.2041 51.6066 79.9071 51.733 76.6127 52.0084C74.4927 52.1853 72.415 52.5899 70.4419 53.8428C70.0686 55.6717 70.7952 57.4528 70.7803 59.2872C71.6088 59.88 72.6887 59.3912 73.4501 60.2705C72.736 60.9896 71.7955 60.5374 71.0266 61.0515C70.9146 62.237 70.7952 63.4815 70.6509 65.021C69.9168 63.6051 70.1582 62.2313 69.7128 61.0627C68.6628 60.7565 66.2666 60.7312 64.6492 61.0149C64.2212 61.883 64.2486 62.8887 64.0894 63.8467C63.9451 64.7204 64.4527 65.6615 63.9426 66.552C63.4325 66.3947 63.3578 65.9958 63.313 65.6025C63.1886 64.5041 63.0866 63.4056 62.9721 62.3072C62.9373 61.9673 62.8875 61.6274 62.8477 61.3155C61.7504 60.9391 58.0429 60.9054 55.8383 61.2509C55.4527 63.3101 56.3509 65.4115 55.8682 67.7853C54.8132 65.5491 55.1591 63.2511 54.5843 61.0767C52.8326 61.1975 51.1505 61.3155 49.4112 61.4363C49.0504 63.1135 49.563 64.7485 49.247 66.5155C49.0454 66.2543 48.8414 66.1026 48.7892 65.9003C48.4259 64.5069 48.0924 63.105 47.7217 61.5852C46.7339 61.3296 45.6739 61.4644 44.5566 61.4869C44.2854 62.1471 44.4621 62.7651 44.5417 63.3775C44.6661 64.3524 44.8702 65.3272 44.5392 66.4369C44.3651 66.2823 44.1585 66.1925 44.1088 66.0379C43.952 65.5519 43.8201 65.0519 43.738 64.5434C43.5788 63.5826 43.5713 62.5881 43.2852 61.7116C42.7303 61.3155 42.2028 61.5403 41.7001 61.4897C41.1876 61.4391 40.6675 61.4307 40.1724 61.293C40.0081 61.2481 39.8464 60.8717 39.8215 60.6272C39.8066 60.4812 40.0305 60.2059 40.1898 60.1497C40.4784 60.0485 40.7994 60.071 41.1055 60.0429C41.6603 59.9923 42.2376 60.116 42.8796 59.7817C42.8846 57.1887 42.8472 54.5901 42.5611 51.8988C42.2326 51.8988 41.9415 51.9185 41.6529 51.8932C41.297 51.8623 40.9288 51.8482 40.5904 51.7359C39.2642 51.2948 38.764 50.3762 38.9755 48.8395C39.1547 47.5416 39.615 46.3898 40.3739 45.3925C40.6625 45.0132 40.9338 44.6199 41.3145 44.0946C40.8342 44.0693 40.5282 44.103 40.252 44.0131C40.1599 43.985 40.0579 43.5215 40.1126 43.4681C40.3864 43.2153 40.7098 43.0355 41.1154 42.763C41.0706 40.1447 41.0258 37.4815 40.9786 34.8043C39.8837 34.189 38.667 35.2425 37.6045 34.2902C38.5799 33.2423 39.8688 33.998 40.8367 33.3603L40.8417 33.3687ZM54.5569 59.6665C54.4773 58.5147 54.3977 57.5904 54.3529 56.6662C54.3081 55.6801 54.3081 54.6912 54.2658 53.7052C54.226 52.8006 54.3006 51.8679 53.997 51.056C53.161 50.7976 52.7156 51.3622 52.2627 51.7977C50.9888 53.0169 49.4933 53.5001 47.8685 53.6827C46.8135 53.8007 46.062 53.427 45.6092 52.337C45.5246 52.132 45.425 51.9325 45.3056 51.6684C44.8055 51.7106 44.2879 51.4409 43.7729 52.0814C43.9918 54.6238 43.9246 57.2898 44.3252 59.8884C45.8331 60.203 46.5124 60.189 47.8013 59.821C47.8013 58.9838 47.7789 58.1242 47.8063 57.2645C47.8362 56.3571 47.5127 55.4638 47.6421 54.5648C48.7842 54.4103 48.9285 54.5058 48.9807 55.4104C49.0031 55.8149 48.9957 56.2251 48.9882 56.6296C48.9807 57.0342 48.9534 57.4387 48.936 57.8432C48.8887 57.8404 48.8439 57.8376 48.7966 57.832C48.7269 57.4359 48.6548 57.0398 48.5229 56.2981C48.3662 58.6523 48.4657 59.776 48.9335 61.6105C48.9807 60.7986 49.0305 59.9895 49.0927 58.9529C49.2545 59.4473 49.3391 59.703 49.451 60.0429C51.1356 59.9193 52.7654 59.8013 54.5544 59.6693L54.5569 59.6665ZM55.5124 56.9527C54.9824 57.4134 55.6194 58.0343 55.2063 58.45C54.7883 58.8743 55.0172 59.4164 55.0098 59.8996C55.2412 59.8322 55.4626 59.717 55.6866 59.7142C57.7966 59.6946 59.9066 59.6805 62.0167 59.6918C62.6313 59.6946 62.9597 59.3687 63.1563 58.7506C63.2707 58.3939 63.4524 58.0652 63.6415 57.6325C63.9575 58.3911 64.2113 59.0007 64.4875 59.658C66.2541 59.6552 67.9337 59.7227 69.5909 59.526C69.7775 58.1691 69.6406 56.0397 69.2774 54.3962C68.934 54.4918 68.5881 54.5704 68.2522 54.6828C65.8361 55.4863 63.4325 56.3262 61.0064 57.0932C59.1577 57.6775 57.2865 57.9753 55.5149 56.9527H55.5124ZM61.5016 46.0442C61.1931 46.0246 61.0811 45.9824 60.9965 46.0189C59.0731 46.8336 57.2119 47.8 55.49 49.0811C55.4029 49.1457 55.388 49.3395 55.3457 49.4631C56.7242 49.4631 58.0554 49.4828 59.3866 49.4547C60.2351 49.4379 60.9766 49.0839 61.6335 48.3254C61.5912 47.6118 61.5489 46.873 61.5016 46.0442ZM43.6061 42.0438C42.6581 40.2431 42.5735 39.2289 43.1359 37.74C43.4245 36.9758 43.8375 36.3185 44.4024 35.7903C44.7184 35.4954 45.0692 35.2425 45.3803 34.9391C45.537 34.7846 45.639 34.5571 45.8655 34.2143C44.5616 34.3351 43.4494 34.4391 42.367 34.5374C42.2077 35.8437 42.372 41.1476 42.6108 42.5551C42.9293 42.3922 43.2229 42.2433 43.6086 42.0466L43.6061 42.0438ZM55.2412 55.1323C55.796 54.1322 56.1519 53.3793 56.6022 52.7079C57.08 51.9943 57.6473 51.3566 58.2843 50.5475C57.0949 50.4913 56.0971 50.379 55.0695 50.8341C55.1242 52.191 55.1765 53.4945 55.2437 55.1295L55.2412 55.1323Z" fill="#134238"/>
<path d="M85.7773 72.7521C85.628 72.1032 85.526 71.5385 85.3717 70.9963C83.9609 66.0688 82.5376 61.1442 81.1193 56.2167C80.9924 55.7728 80.8456 55.3374 80.7312 54.8907C80.659 54.6126 80.6068 54.3232 80.5893 54.0367C80.5545 53.4355 80.8183 53.0085 81.2985 52.8343C81.7215 52.6826 82.1967 52.9101 82.4481 53.4551C82.6148 53.8119 82.7267 54.2052 82.8362 54.5929C84.4959 60.3491 86.1506 66.1054 87.8102 71.8616C88.0167 72.5808 88.2407 73.2915 88.4646 74.0051C88.7732 74.9911 88.5517 75.553 87.6236 75.8143C86.6756 76.0811 85.7076 76.2862 84.7397 76.4267C81.6195 76.8762 78.4967 77.2863 75.374 77.7077C75.0679 77.7499 74.7594 77.792 74.4508 77.8061C69.1409 78.0673 63.8335 78.3595 58.5186 78.0139C57.5407 77.9493 56.5579 77.983 55.58 78.0055C53.878 78.0448 52.1761 78.146 50.4741 78.16C48.0456 78.1825 45.637 78.4634 43.2259 78.7556C40.7078 79.0646 38.1847 79.1236 35.6641 78.705C35.0022 78.5955 34.3304 78.5646 33.661 78.5224C32.3945 78.4438 31.2723 78.0673 30.2944 77.0475C27.1468 73.7719 23.8076 70.7154 20.8043 67.2853C17.1466 63.1079 13.5237 58.8686 10.4606 54.076C9.47033 52.5253 8.24362 51.1656 7.12142 49.7188C5.25275 47.3112 3.36169 44.9233 1.5179 42.4933C0.724146 41.4482 0.343444 40.2796 0.567386 38.7991C0.933158 36.3803 0.714192 33.9222 0.654475 31.4753C0.557433 27.6322 0.654475 23.7947 1.21682 19.9881C1.34372 19.1313 1.33625 18.2491 1.41588 17.3839C1.50545 16.4006 1.61245 15.4202 1.73935 14.4426C1.76423 14.2487 1.92348 14.0745 2.09019 13.7655C2.42859 14.6111 2.55798 15.3359 2.47587 16.0832C2.26686 17.9429 2.3639 19.7999 2.37883 21.6624C2.39625 23.9323 2.24695 26.2022 2.19221 28.4749C2.16733 29.5228 2.16982 30.5707 2.20714 31.6185C2.30916 34.47 2.4062 37.3214 1.97573 40.2374C2.28676 40.5886 2.59033 40.9735 2.93371 41.3106C4.63815 42.9849 5.79768 45.2633 7.66386 46.7578C10.0103 49.8564 12.3418 52.9691 14.31 56.4021C14.4493 56.6465 14.5886 56.8937 14.7603 57.1072C17.9652 61.1385 21.19 65.139 24.9621 68.5382C26.5297 69.9513 27.9182 71.6144 29.3887 73.1651C30.2521 74.0753 31.1181 74.9883 32.0238 75.9463C32.5413 75.7525 33.0191 75.5755 33.4894 75.4013C33.2704 73.7494 33.0489 72.1566 32.8524 70.5609C32.7105 69.4091 32.6085 68.2489 32.4816 67.0942C32.2253 64.785 31.9665 62.473 31.7028 60.1637C31.3943 57.45 31.0981 54.7334 30.7647 52.0252C30.4039 49.0867 29.9934 46.1538 29.6326 43.2125C29.5057 42.1758 29.4783 41.1252 29.3862 40.0829C29.0055 35.737 28.6199 31.3938 28.2342 27.0478C28.1172 25.7218 27.9854 24.4296 27.5275 23.1457C27.1991 22.2243 27.2463 21.0697 27.3185 20.0387C27.5798 16.2995 27.3434 12.5968 26.8831 8.89421C26.5521 6.23662 26.4625 3.55937 26.6317 0.876498C26.6467 0.654564 26.7114 0.415775 26.8134 0.227552C26.8781 0.103944 27.0597 0 27.1866 0C27.3185 0 27.5225 0.103944 27.5698 0.227552C27.6942 0.539383 27.7838 0.882117 27.8286 1.22204C28.0326 2.83457 28.2242 4.44991 28.4034 6.06525C28.6522 8.3183 28.9607 10.5685 29.1076 12.83C29.3141 16.0832 29.3887 19.3448 29.5355 22.6035C29.6425 24.9886 29.7122 27.3765 29.9137 29.7504C30.2571 33.807 30.6453 37.8608 31.1081 41.9005C31.3395 43.9148 31.775 45.901 32.1134 47.8984C32.1905 48.3535 32.3149 48.817 32.3049 49.2721C32.2029 53.3737 32.937 57.3769 33.3824 61.4139C33.6312 63.6669 33.8551 65.9228 34.0915 68.1786C34.2234 69.4512 34.3254 70.7266 34.5021 71.9908C34.6539 73.0808 34.7982 74.1596 34.512 75.3816C35.0694 75.3816 35.5223 75.3873 35.9776 75.3816C37.5775 75.362 39.175 75.3732 40.7749 75.3114C43.6613 75.2018 46.5477 75.0529 49.434 74.9181C49.7948 74.9012 50.1531 74.8423 50.5139 74.8282C54.5349 74.6596 58.5534 74.4911 62.5744 74.3338C65.6151 74.2158 68.6607 74.1568 71.7013 73.9967C73.9159 73.8815 76.1254 73.6427 78.3375 73.4657C80.445 73.2971 82.555 73.1398 84.6626 72.9657C85.006 72.9376 85.3469 72.8364 85.7823 72.7521H85.7773Z" fill="#134238"/>
<path d="M35.731 29.9245C36.3954 30.0285 36.8881 29.5677 37.5076 29.27C37.5474 26.5843 38.7194 24.3958 39.9834 22.258C41.5311 19.6425 43.0689 17.0187 44.945 14.6785C46.6121 12.5996 48.5156 10.8129 50.4067 9.01218C50.7973 8.64136 51.2452 8.33233 51.7006 8.06264C52.2107 7.76205 52.7257 7.87161 52.9696 8.24805C53.2682 8.70597 53.1512 9.32401 52.6461 9.75945C51.8275 10.4646 50.9964 11.1557 50.1604 11.8355C47.6622 13.861 45.5646 16.3304 43.8153 19.179C42.6981 20.9966 41.6008 22.8283 40.5284 24.6796C39.9337 25.705 39.4485 26.8006 39.2195 28.0142C39.1897 28.1743 39.2146 28.3485 39.2146 28.4946C39.4982 28.7587 39.752 28.5985 39.9362 28.4328C40.5831 27.8597 41.2276 27.2782 41.8247 26.6377C42.2701 26.1573 42.6633 25.6066 43.0365 25.0504C45.6915 21.0949 49.0979 18.089 52.676 15.3022C53.4946 14.6645 54.1142 14.4285 55.1866 14.2965C55.1095 14.5381 55.097 14.7768 54.9826 14.8976C54.4227 15.4988 53.8504 16.0832 53.2607 16.645C51.3721 18.4486 49.4139 20.1679 47.5975 22.0613C46.3533 23.3592 45.3157 24.9071 44.1587 26.3146C43.2828 27.3793 42.407 28.4496 41.4515 29.416C40.7175 30.1605 39.8341 30.6437 38.7891 30.6493C38.5079 30.6493 38.1969 30.8038 37.953 30.9836C37.2414 31.509 36.4551 31.7618 35.629 31.8573C34.5516 31.9837 33.9669 31.4275 33.8997 30.1914C33.8723 29.6773 33.9594 29.152 34.0166 28.6351C34.0739 28.121 34.1609 27.6097 34.2406 27.0647C33.7628 26.5871 33.0562 26.4017 32.9044 25.6432C32.7825 25.0392 32.7377 24.4155 32.6356 23.6121C32.4341 23.2862 31.9862 22.8198 31.8419 22.2524C31.71 21.7383 31.8444 21.1005 31.9688 20.5443C32.7924 16.8304 34.4944 13.6896 36.9353 11.0517C37.1866 10.7792 37.5201 10.5938 37.8386 10.4253C37.9356 10.3747 38.1496 10.473 38.2392 10.5798C38.3287 10.6837 38.4034 10.9253 38.3561 11.0349C38.1994 11.3945 38.0053 11.7428 37.7838 12.0575C37.1095 13.0154 36.4029 13.9425 35.7335 14.9033C34.5317 16.6254 33.8673 18.648 33.2751 20.6988C33.1855 21.0078 33.2353 21.3674 33.203 22.0613C33.5414 21.4995 33.7155 21.2382 33.8648 20.9601C36.0172 16.9175 38.1596 12.8693 40.3169 8.8352C40.6354 8.23963 41.021 7.6862 41.3943 7.13277C41.4814 7.00354 41.6406 6.8996 41.7824 6.8715C41.9193 6.84341 42.1084 6.87712 42.2129 6.96983C42.3124 7.05692 42.4144 7.29851 42.3746 7.40246C42.2154 7.82666 42.0238 8.24244 41.8073 8.63293C40.1327 11.6389 38.4308 14.6251 36.7711 17.6423C36.0097 19.0273 35.303 20.4488 34.6088 21.8787C34.2331 22.6513 33.9967 23.4913 34.1609 24.3987C34.2306 24.7835 34.4247 25.0223 34.9024 24.9296C35.0268 24.6936 35.1811 24.4043 35.3354 24.1121C35.8629 23.112 36.368 22.0978 36.9229 21.1174C38.3686 18.5694 39.8267 16.027 41.3022 13.5014C41.9815 12.3384 42.7205 11.2147 43.4247 10.0713C44.1612 8.87733 44.94 7.71429 45.6044 6.47258C46.0921 5.56237 46.7813 5.2674 47.6398 5.13536C52.4894 4.38247 57.324 3.52845 62.084 2.20527C63.5272 1.80355 64.9082 1.84849 66.3414 2.34855C68.653 3.152 71.0118 3.78129 73.3359 4.53698C75.4633 5.22807 77.5534 6.08771 79.6983 6.6889C83.3535 7.71429 87.0834 8.29581 90.8407 8.61607C92.6397 8.77058 94.4387 8.92509 96.2377 9.09084C96.6482 9.13017 97.0563 9.20321 97.4619 9.2903C97.9048 9.38582 98.1835 9.69203 98.3228 10.1837C98.4721 10.709 98.3402 11.1725 97.8924 11.3186C97.5067 11.445 97.0812 11.5209 96.6831 11.4815C93.2966 11.1388 89.8926 10.9703 86.536 10.2764C85.1675 9.99262 83.784 9.8044 82.4205 9.49538C80.1437 8.97847 77.9516 8.13287 75.752 7.2929C73.0696 6.27031 70.3525 5.36572 67.6453 4.42461C66.8092 4.13526 65.9532 3.91613 65.1172 3.62116C64.5076 3.40484 63.9179 3.38798 63.2933 3.54811C61.3848 4.03693 59.4763 4.5426 57.5529 4.9359C55.2712 5.39944 52.982 5.8124 50.6505 5.85735C49.7274 5.87701 48.8067 6.0849 47.8811 6.16637C47.0948 6.2366 46.5872 6.69452 46.1045 7.37998C44.425 9.75945 43.1336 12.417 41.7401 14.9988C40.292 17.6845 38.8388 20.3673 37.4529 23.0923C36.8134 24.3481 36.2536 25.6713 35.7982 27.0253C35.4996 27.9103 35.1811 28.8991 35.7236 29.9189L35.731 29.9245Z" fill="#134238"/>
<path d="M114.962 67.9117C114.28 67.3077 113.817 66.7431 113.74 65.8778C113.626 64.6024 113.519 63.3298 113.409 62.0544C113.31 60.8969 113.175 59.7423 113.13 58.5821C113.103 57.8348 113.123 57.0567 113.275 56.3347C113.718 54.2417 114.2 52.1572 114.74 50.0924C115.823 45.9628 116.972 41.8556 118.055 37.7259C118.682 35.3352 118.861 35.5881 120.59 35.6471C124.716 35.7819 128.844 35.8016 132.969 35.8634C133.691 35.8746 134.415 35.8409 135.137 35.8802C136.358 35.9448 136.615 36.3662 136.455 37.9479C135.97 38.3974 135.388 38.2597 134.83 38.2541C130.24 38.1979 125.649 38.1361 121.058 38.0771C120.7 38.0715 120.341 38.0771 119.916 38.0771C119.792 38.4844 119.662 38.8525 119.565 39.2317C118.592 43.0327 117.647 46.8449 116.651 50.6374C116.064 52.8708 115.442 55.0901 115.114 57.3966C115.056 57.7955 114.992 58.2085 115.022 58.6046C115.178 60.8099 115.345 63.0123 115.544 65.212C115.626 66.1166 115.487 66.9285 114.964 67.9089L114.962 67.9117Z" fill="#134238"/>
<path d="M101.095 7.47551C101.399 9.19479 101.662 10.9057 102.008 12.594C103.026 17.5889 103.795 22.6232 104.17 27.7333C104.235 28.6014 104.33 29.4694 104.369 30.3375C104.389 30.7645 104.223 31.1325 103.849 31.3236C103.344 31.582 102.725 31.2814 102.635 30.6718C102.508 29.8122 102.431 28.9413 102.369 28.0732C101.966 22.612 101.073 17.2462 99.9753 11.917C99.7414 10.7849 99.5871 9.63304 99.3607 8.49809C99.2537 7.95309 99.2512 7.4418 99.5921 7.02321C99.9827 6.54282 99.7513 5.68599 100.356 5.37978C100.913 5.09604 101.503 4.88254 102.09 4.68027C103.969 4.02851 105.912 3.76725 107.846 3.43013C108.861 3.25315 109.876 3.04245 110.874 2.76995C113.574 2.03111 116.283 1.31755 118.953 0.460715C120.235 0.0477499 121.496 0.261256 122.768 0.202261C122.875 0.196642 123.046 0.376437 123.084 0.508473C123.121 0.643319 123.074 0.907392 122.984 0.969197C122.245 1.48049 121.538 2.16595 120.73 2.40755C116.851 3.56498 112.951 4.64375 109.04 5.65509C107.44 6.06805 105.78 6.18885 104.163 6.53721C103.165 6.75352 102.14 6.91927 101.097 7.47551H101.095Z" fill="#134238"/>
<path d="M130.725 28.5846C130.307 29.2082 129.827 29.4723 129.252 29.638C125.616 30.6747 122.023 31.8827 118.346 32.7535C116.188 33.2648 114.083 34.0571 111.956 34.7229C111.707 34.8015 111.468 34.9139 111.217 34.9757C110.791 35.0824 110.358 34.8774 110.147 34.4981C109.903 34.0627 109.938 33.3913 110.319 33.0738C110.679 32.7704 111.102 32.5148 111.535 32.3799C113.909 31.6326 116.29 30.9163 118.677 30.2168C121.511 29.388 124.35 28.5874 127.189 27.7727C127.736 27.6154 128.276 27.4187 128.829 27.2867C129.827 27.0479 130.118 27.253 130.725 28.5874V28.5846Z" fill="#134238"/>
<path d="M129.767 66.0773C129.563 66.2205 129.361 66.3638 129.157 66.5099C129.647 66.8695 130.324 66.8386 130.71 67.3358C130.615 67.7853 130.369 67.7179 130.195 67.7123C129.324 67.6926 128.441 67.7291 127.582 67.5887C125.487 67.2487 123.385 67.2066 121.279 67.2796C120.453 67.3077 119.687 67.1167 118.831 66.8498C118.995 66.6363 119.085 66.4144 119.184 66.4059C122.362 66.2149 125.507 65.5266 128.704 65.6587C129.048 65.6727 129.389 65.7373 129.73 65.7795C129.742 65.8778 129.754 65.9789 129.767 66.0773Z" fill="#134238"/>
</g>
<defs>
<clipPath id="clip0_29_350">
<rect width="136" height="79" fill="white" transform="translate(0.5)"/>
</clipPath>
</defs>
</svg>
