<svg width="147" height="100" viewBox="0 0 147 100" fill="none" xmlns="http://www.w3.org/2000/svg">
<g clip-path="url(#clip0_29_340)">
<path d="M19.8962 65.4061C18.6734 65.5536 17.555 65.701 16.4365 65.8176C13.9121 66.085 11.3908 66.421 8.86322 66.5718C7.22344 66.6678 5.57419 66.4861 3.9281 66.4313C3.2962 66.4107 2.66114 66.4004 2.0324 66.3593C1.65642 66.3353 1.26465 66.3181 0.913942 66.1878C0.727533 66.1158 0.49373 65.8038 0.503209 65.6084C0.512687 65.4061 0.74649 65.1284 0.945537 65.0359C1.22673 64.9021 1.55848 64.8953 1.87443 64.8541C4.96125 64.4701 8.05439 64.1376 11.1317 63.6953C12.8884 63.4416 14.6166 62.9924 16.3638 62.6564C17.476 62.4405 18.6008 62.0633 19.7003 62.749C19.7982 62.8107 19.9499 62.8142 20.0636 62.7867C20.4175 62.6976 20.7461 62.4267 21.1315 62.7387C21.577 63.1022 21.7097 63.6267 21.8108 64.1684C22.0509 65.4507 22.231 66.7433 22.5217 68.0118C23.1473 70.7478 23.8455 73.4632 24.4743 76.1992C24.9482 78.2666 25.3557 80.3511 25.7949 82.4288C26.1014 83.8825 25.678 85.295 25.6085 86.7282C25.5643 87.671 25.2989 88.6104 25.5264 89.663C27.4189 89.0184 29.3051 88.967 31.1913 88.9361C34.6162 88.8813 38.0411 88.775 41.4533 89.2139C44.1579 89.5636 46.8687 89.8893 49.5669 90.287C53.6521 90.887 57.7247 91.5315 61.8668 91.4664C64.4829 91.4253 67.0389 92.0047 69.5444 92.7761C71.4748 93.3692 73.4369 93.4035 75.3957 93.2801C77.4463 93.1498 78.6405 91.7921 78.7069 89.7624C78.7322 88.9464 78.5363 88.2504 77.7496 87.9384C76.9818 87.6333 76.2235 87.2562 75.4305 87.0676C73.0166 86.5019 70.5933 85.9739 68.1605 85.5008C66.2648 85.1305 64.6945 84.2391 63.5698 82.5076C62.5366 80.9202 62.5556 79.4323 63.8162 78.0368C64.6061 77.1626 65.5192 76.3706 66.4923 75.75C67.576 75.0575 68.7671 74.5397 69.9488 74.046C74.8586 71.9992 79.7716 69.9661 84.7067 67.9878C86.1885 67.3947 87.7241 66.9421 89.2627 66.5375C91.2501 66.0164 93.1615 65.3238 94.8835 64.1067C95.4048 63.7364 95.9956 63.4313 96.2831 62.5982C96.0462 62.3582 95.825 61.957 95.5217 61.8645C94.7413 61.6279 93.9167 61.3605 93.1236 61.4016C90.2106 61.549 87.2912 61.7033 84.3971 62.0736C81.9485 62.3856 79.5189 62.941 77.105 63.5033C74.192 64.1787 71.3137 65.0153 68.4006 65.6907C66.9188 66.037 65.4023 66.2495 63.8889 66.4004C62.5429 66.5375 61.2665 66.8873 60.0311 67.4358C59.4466 67.6964 58.8811 67.9947 58.2492 67.789C58.0186 67.1821 58.4356 66.9764 58.7263 66.8015C59.9585 66.0713 61.2697 65.4644 62.6598 65.3444C67.4307 64.9296 71.9866 63.4107 76.6248 62.2999C81.7589 61.069 86.9058 59.869 92.1726 59.4885C92.9909 59.4302 93.8219 59.4336 94.6402 59.4885C95.6133 59.5502 96.4948 59.9548 97.2531 60.613C98.5232 61.717 98.6527 63.2976 97.528 64.5524C97.0035 65.1353 96.3653 65.6153 95.7302 66.0576C93.5596 67.573 91.1553 68.4575 88.6182 68.797C86.3244 69.1021 84.1791 69.9112 82.0401 70.7478C79.1776 71.8655 76.3467 73.0758 73.4969 74.2277C72.6059 74.5877 71.677 74.8346 70.7987 75.2289C69.0452 76.0174 67.3106 76.8609 65.5792 77.7077C65.238 77.8757 64.9094 78.1157 64.6345 78.39C63.4213 79.6003 63.5508 81.5545 64.9821 82.3945C65.9741 82.9739 67.0294 83.5088 68.2047 83.5396C69.5444 83.5774 70.8366 83.8585 72.1351 84.2185C73.8507 84.6951 75.5979 85.0585 77.3451 85.3876C78.0213 85.5145 78.7353 85.4288 79.4304 85.4048C81.7116 85.3293 83.9927 85.1853 86.277 85.1579C91.5407 85.0962 96.8076 85.1202 102.071 85.0482C106.893 84.9796 111.711 84.8288 116.529 84.7122C116.779 84.7053 117.028 84.6573 117.328 84.6231C117.809 83.8654 117.667 83.0562 117.452 82.2711C116.984 80.5568 116.466 78.8597 115.995 77.1454C115.723 76.1614 115.433 75.1706 115.278 74.1592C114.99 72.2632 115.461 71.2552 117.025 70.5078C118.586 69.7604 120.185 69.0952 121.793 68.4712C122.564 68.173 123.382 67.981 124.194 67.861C128.087 67.2781 131.985 66.7433 135.878 66.1741C136.44 66.0918 136.987 65.893 137.549 65.7901C138.361 65.6427 139.189 65.4781 139.922 66.1878C139.827 67.1444 139.227 67.5935 138.478 67.8232C136.715 68.3718 134.939 68.8827 133.167 69.3969C132.74 69.5204 132.289 69.5581 131.868 69.7021C128.216 70.9638 124.399 71.2038 120.643 71.7901C119.834 71.9169 119.009 71.9032 118.144 71.9581C118.131 72.2186 118.052 72.4483 118.125 72.582C119.534 75.1603 120.185 78.0437 120.984 80.8688C121.132 81.3934 121.218 81.9591 121.458 82.4288C121.96 83.4162 122.207 84.4756 122.336 85.5693C122.523 87.1396 122.69 88.7099 122.826 90.287C122.911 91.2675 122.766 92.2104 122.21 93.0332C121.407 94.2161 120.223 94.3018 119.294 93.2424C118.794 92.6698 118.539 91.9704 118.437 91.2093C118.276 89.9818 118.147 88.751 117.998 87.5236C117.941 87.0573 117.872 86.5945 117.796 86.0493C117.294 85.991 116.867 85.9053 116.441 85.9019C115.044 85.8916 113.651 85.9053 112.254 85.9156C104.454 85.9739 96.6496 86.015 88.8488 86.0973C86.059 86.1282 83.2692 86.255 80.4794 86.3476C80.1192 86.3579 79.7622 86.423 79.2945 86.4745C79.4936 86.9716 79.6642 87.335 79.7874 87.7156C80.135 88.775 80.2171 89.8481 79.9675 90.9624C79.4146 93.4344 78.0718 94.8367 75.7433 95.0047C73.4211 95.1726 71.0799 95.2104 68.7735 94.4149C66.6566 93.6847 64.4513 93.3144 62.2049 93.5338C58.8337 93.8664 55.4846 93.4241 52.1387 93.143C48.6001 92.8447 45.0804 92.2858 41.545 91.9361C39.5893 91.7441 37.6177 91.6824 35.6525 91.6755C33.0523 91.6653 30.452 91.7921 27.8517 91.8127C26.9829 91.8195 26.1109 91.6858 25.1061 91.607C24.7081 92.9304 24.2815 94.3498 23.8613 95.7726C23.7634 96.0984 23.6686 96.4309 23.6212 96.7703C23.4664 97.8572 22.9767 98.4229 21.8993 98.5875C19.7066 98.92 17.536 99.4275 15.3528 99.832C14.7936 99.9349 14.2154 99.9589 13.6467 99.9623C11.4256 99.976 9.20444 100.007 6.98648 99.952C6.17133 99.9314 5.34986 99.76 4.55683 99.5406C4.23141 99.4515 3.94073 99.0949 3.70061 98.7966C3.46997 98.5086 3.49209 98.0938 3.7638 97.8709C4.15242 97.5486 4.59159 97.1989 5.05287 97.1029C6.04179 96.8938 7.05915 96.7978 8.06703 96.7361C10.4082 96.5921 12.7525 96.4481 15.0969 96.4035C17.0589 96.3658 19.021 96.4206 20.9767 96.2218C21.2231 96.1978 21.4664 96.1601 21.7539 96.1189C21.8614 95.8446 21.9972 95.6081 22.0446 95.3509C22.6323 92.0424 23.2199 88.7304 23.7665 85.415C23.8645 84.8253 23.855 84.1773 23.7381 83.5945C23.0588 80.238 22.3226 76.8917 21.6212 73.5386C21.1284 71.1935 20.6607 68.8415 20.1773 66.493C20.0984 66.109 19.9878 65.7318 19.9025 65.3924L19.8962 65.4061Z" fill="#134238"/>
<path d="M31.6557 60.8324C33.9179 60.2462 35.8547 59.4165 37.6492 58.2713C39.0647 57.3662 40.4138 56.3274 41.7345 55.2611C45.3458 52.3434 48.9255 49.3743 53.1149 47.4543C53.3487 47.348 53.5699 47.2109 53.8069 47.1115C57.4055 45.5823 60.9916 44.0155 64.6092 42.5515C67.0009 41.5847 69.5411 41.307 72.0561 40.9744C73.5632 40.7755 75.0829 40.6384 76.5994 40.5904C77.8411 40.5527 78.9817 40.9847 79.8253 42.0544C80.0212 42.3047 80.1854 42.6304 80.2423 42.9492C80.2834 43.1824 80.1918 43.5492 80.0338 43.6829C79.8885 43.8098 79.5662 43.7549 79.3419 43.6932C79.1712 43.6486 79.0101 43.4909 78.8774 43.3469C77.9359 42.3287 76.7479 42.1401 75.522 42.2772C72.6848 42.5892 69.8508 42.9115 67.0514 43.5698C64.8619 44.0841 62.8683 45.1538 60.802 46.0178C59.6804 46.4875 58.5903 47.0498 57.4624 47.4955C53.69 48.98 50.1324 50.9 46.8023 53.3411C44.281 55.1857 41.6997 56.9411 39.1437 58.7273C38.7709 58.9879 38.3949 59.2485 37.9968 59.4576C34.6161 61.2164 31.1375 62.6839 27.4473 63.4896C27.0144 63.5856 26.5721 63.6404 26.1297 63.6918C26.0128 63.7056 25.8896 63.637 25.6147 63.565C27.0492 62.3513 28.7648 62.1524 30.3445 61.4187C30.6478 59.3993 30.5214 57.3319 30.6478 55.2885C30.7774 53.228 30.8153 51.1606 30.8532 49.0966C30.8879 47.0326 30.8816 44.9652 30.8753 42.9012C30.8721 40.8372 30.85 38.7698 30.8311 36.7059C30.8121 34.7105 30.8089 32.7116 30.7489 30.7162C30.6889 28.6522 30.5846 26.5883 30.474 24.5277C30.3635 22.4672 30.1455 20.4101 30.1107 18.3495C30.0759 16.3061 29.5009 14.2936 29.7126 12.2364C30.3856 11.9484 30.9416 12.0821 31.4851 12.233C35.4597 13.3438 39.5039 13.4878 43.5733 13.3233C47.8196 13.1484 52.0691 13.0387 56.3123 12.8193C62.268 12.5141 68.2173 12.089 74.1729 11.8044C79.879 11.5336 85.5819 11.5404 91.2942 11.8387C97.4394 12.161 103.591 12.3839 109.742 11.9896C110.943 11.9142 112.137 11.7153 113.341 11.6124C113.935 11.561 114.444 11.345 114.921 10.9747C115.85 10.2547 116.772 9.52104 117.73 8.84561C118.58 8.24905 119.467 7.71763 120.346 7.16563C122.779 5.63994 125.417 5.56794 128.105 5.90051C128.974 6.01022 129.682 6.41821 129.957 7.41934C130.134 8.05362 129.742 8.7599 129.139 8.74276C128.649 8.72904 128.08 8.68105 127.688 8.40676C126.254 7.41592 124.778 7.62506 123.29 8.09134C121.818 8.55076 120.504 9.39418 119.183 10.2205C115.433 12.569 112.03 15.4353 108.741 18.4695C108.21 18.9598 107.607 19.3644 107.12 19.8992C106.457 20.6261 105.806 21.3906 105.278 22.2306C104.763 23.0466 104.555 23.9929 105.183 25.0317C105.882 25.0043 106.488 24.1129 107.256 24.4934C107.878 24.802 108.444 25.2511 109.073 25.6626C112.956 23.5334 116.539 20.8352 119.96 17.8661C121.196 16.7964 122.519 15.8398 123.846 14.9038C126.45 13.0661 129.104 11.3107 131.691 9.44561C132.481 8.87647 133.293 8.68105 133.985 8.69133C134.886 7.83763 135.634 7.11078 136.399 6.4045C137.123 5.73594 137.846 5.06737 138.592 4.42967C140.036 3.19539 141.492 1.97826 142.949 0.764564C143.457 0.339426 144.013 0.0308583 144.683 0.00343005C145.571 -0.0377123 146.257 0.370283 146.355 1.29942C146.503 2.72911 146.506 4.17938 146.509 5.61937C146.509 5.91422 146.301 6.29479 146.08 6.49707C143.502 8.82847 140.908 11.1359 138.304 13.4364C137.815 13.8684 137.284 14.2558 136.74 14.6055C136.07 15.0375 135.992 15.0135 134.791 14.6398C134.671 13.5838 135.306 13.0079 135.969 12.4524C137.578 11.1119 139.211 9.80217 140.794 8.42048C141.682 7.64563 142.491 6.76792 143.318 5.91422C143.565 5.66051 143.631 5.32794 143.258 4.9028C141.571 6.04793 139.909 7.2822 138.263 8.5439C137.281 9.29818 136.336 10.1245 135.034 10.1725C134.661 11.465 133.799 12.1679 132.889 12.8021C130.703 14.3244 128.519 15.8604 126.301 17.3278C124.728 18.3701 123.211 19.4741 121.771 20.7289C118.504 23.5746 115.11 26.2317 111.325 28.2374C111.161 28.3231 111.025 28.4774 110.782 28.6831C110.956 29.026 111.111 29.3791 111.303 29.7014C112.226 31.2476 112.529 31.5631 114.393 30.3905C114.722 30.1848 114.997 29.8694 115.338 29.7014C115.72 29.5128 116.15 29.4374 116.659 29.2831C116.927 30.1505 116.63 30.7471 116.226 31.2579C115.9 31.6694 115.483 32.0088 115.073 32.3276C113.322 33.6888 111.749 33.411 110.501 31.4705C109.957 30.6271 109.543 29.6877 109.041 28.81C108.64 28.1105 108.213 27.4248 107.761 26.7597C107.354 26.1563 106.773 25.882 106.09 26.0363C105.376 26.1974 105.082 26.7768 104.94 27.5071C104.766 28.3985 104.722 29.2831 104.946 30.1642C105.55 32.5505 106.09 34.9607 106.801 37.3093C107.461 39.4898 107.761 41.7218 108.008 43.9744C108.156 45.3389 108.295 46.7069 108.428 48.0749C108.649 50.3617 109.36 52.4908 110.232 54.5617C110.766 55.8336 111.632 56.8656 112.605 57.7433C115.155 60.0405 116.235 63.133 116.763 66.5341C116.902 67.4289 116.832 68.3169 116.317 69.1055C115.872 69.7878 114.927 69.7364 114.63 68.9478C114.441 68.4472 114.343 67.8884 114.292 67.3467C113.998 64.2438 112.927 61.5044 111.136 59.077C110.662 58.4325 110.257 57.7228 109.774 57.0885C107.701 54.3765 106.953 51.14 106.583 47.7457C106.539 47.3377 106.501 46.9263 106.441 46.5183C106.422 46.3915 106.327 46.2818 106.198 46.0315C105.66 45.9766 105.047 45.9012 104.431 45.8498C102.94 45.7263 101.676 45.1743 101.164 43.5046C100.653 41.8384 100.346 40.1515 101.698 38.7081C101.733 38.6704 101.724 38.5881 101.736 38.5298C99.9891 35.3105 99.9417 32.0602 103.335 29.7528C103.455 28.8614 103.588 27.9185 103.698 26.9757C103.72 26.7871 103.705 26.5506 103.619 26.3928C102.681 24.6546 103.266 23.0535 104.04 21.5175C104.709 20.1872 105.559 18.9735 106.646 17.9929C107.815 16.937 109.009 15.9118 110.185 14.8593C110.554 14.5267 110.899 14.1598 111.414 13.6524C110.924 13.6147 110.678 13.5701 110.431 13.5804C104.466 13.7998 98.5073 13.6798 92.5517 13.313C85.8315 12.9016 79.1081 13.001 72.391 13.289C67.5759 13.4947 62.764 13.8273 57.949 14.0776C53.453 14.3107 48.9539 14.5335 44.4548 14.7255C40.9635 14.8764 37.4786 14.7153 34.0316 14.057C33.2228 13.9027 32.4424 13.601 31.6431 13.3884C31.3555 13.313 31.0522 13.2958 30.7205 13.2478C31.0143 18.5621 31.3619 23.7597 31.5704 28.9677C31.7821 34.2613 31.9495 39.5653 31.9622 44.8624C31.978 50.084 31.7758 55.3091 31.6652 60.8222L31.6557 60.8324ZM105.54 39.4007H103.07C102.839 40.1824 102.713 40.8715 102.441 41.4818C101.973 42.5309 102.656 44.0944 103.768 44.5058C104.523 44.7869 105.332 44.9892 106.125 44.6978C106.251 42.4075 106.131 41.3824 105.54 39.3973V39.4007ZM105.212 37.4601C104.532 34.995 104.055 32.8522 103.348 30.5311C102.991 31.0659 102.751 31.3745 102.564 31.7208C102.375 32.0705 102.239 32.4511 102.087 32.7973C102.927 34.4259 102.716 36.747 105.212 37.4636V37.4601Z" fill="#134238"/>
<path d="M57.8765 61.0381C58.2303 60.2496 58.8559 60.2324 59.3741 60.0336C61.8163 59.101 64.2776 58.213 66.7136 57.2565C70.5808 55.7376 74.4069 54.0954 78.2994 52.6588C80.9913 51.6645 83.7685 50.9514 86.4983 50.0737C87.8948 49.6246 89.2565 49.052 90.6498 48.6063C92.0527 48.1571 93.4776 47.8211 94.9436 48.356C95.7998 48.6714 96.5707 49.1206 97.1552 49.8885C97.7682 50.6908 97.9483 51.572 97.5818 52.5799C97.0984 53.9102 96.2864 54.9422 95.209 55.7171C94.634 56.1319 93.9926 56.4508 93.3638 56.7765C92.3939 57.277 91.3955 57.7159 90.4318 58.2302C89.2312 58.8713 87.9738 59.2519 86.4572 59.4884C87.3134 58.3467 88.2992 57.7845 89.2755 57.2085C90.3307 56.5845 91.4208 56.0153 92.4192 55.2919C93.2533 54.6851 94.0273 53.9479 94.7351 53.1697C95.6039 52.2131 95.3259 51.2222 94.1253 50.8657C92.9942 50.5297 91.8631 50.6737 90.7604 51.068C89.6167 51.476 88.4919 51.9457 87.3387 52.3125C85.2124 52.9879 83.0608 53.5536 80.9439 54.2565C78.707 55.0005 76.5016 55.8576 74.2774 56.6462C71.0894 57.7707 67.9142 58.9502 64.6978 59.965C62.701 60.5959 60.6379 60.9901 58.5937 61.4427C58.3883 61.4873 58.1166 61.1821 57.8765 61.0381Z" fill="#134238"/>
<path d="M137.808 59.6359C137.941 54.9285 138.532 50.3034 139.912 45.8292C141.243 41.5161 142.247 37.1104 143.271 32.7082C143.818 30.3596 144.061 27.9597 144.146 25.5563C144.266 22.0969 143.239 18.9118 141.868 15.8501C141.625 15.305 141.16 14.8798 140.86 14.3621C140.538 13.8033 140.611 13.0798 140.939 12.8467C141.331 12.5724 142.108 12.7816 142.465 13.2924C142.617 13.5084 142.74 13.7553 142.835 14.009C143.41 15.5381 144.001 17.0604 144.532 18.6066C145.742 22.1312 145.723 25.7757 145.192 29.4099C144.449 34.515 143.179 39.4898 141.745 44.4166C141.382 45.6612 141.059 46.9229 140.705 48.1709C139.849 51.2223 139.514 54.3594 139.322 57.5273C139.224 59.1045 139.056 60.6782 138.901 62.2519C138.876 62.5124 138.769 62.7764 138.658 63.013C138.611 63.1158 138.437 63.2393 138.358 63.2153C138.197 63.1673 137.991 63.0576 137.931 62.9136C137.833 62.6736 137.811 62.3856 137.805 62.1147C137.789 61.2884 137.799 60.4622 137.799 59.6359H137.808Z" fill="#134238"/>
<path d="M48.3534 28.5562C46.7452 29.3105 45.0517 29.8522 43.5731 30.9219C43.156 31.2236 42.6979 31.4705 42.2366 31.6899C42.1008 31.755 41.8417 31.6899 41.7279 31.5733C41.6174 31.4636 41.5384 31.1859 41.5858 31.035C41.7469 30.531 41.9712 30.0476 42.1671 29.5676C41.9712 29.4202 41.8259 29.3105 41.5479 29.1048C42.3188 28.4945 43.0518 27.9185 43.7721 27.3494C44.1955 27.8157 43.8574 28.0659 43.7184 28.3299C43.3488 29.0294 42.7358 29.5745 42.5494 30.4248C43.2255 30.3973 45.6394 29.2179 46.8905 28.3231C46.483 27.9151 46.0786 27.5071 45.6204 27.0477C45.8163 26.7631 45.9206 26.482 46.1133 26.3551C47.0738 25.7311 48.1354 25.5802 49.2286 25.7654C49.8857 25.8785 50.1985 26.4511 49.9647 27.1231C49.6804 27.9425 49.3423 28.7448 49.02 29.5711C49.6867 30.1916 50.3186 29.8659 50.8999 29.7425C51.7435 29.5608 52.5208 28.9471 53.4465 29.5985C53.655 29.7459 54.1669 29.4511 54.5081 29.2865C55.4338 28.8408 56.3343 28.3265 57.2663 27.8945C57.7086 27.6888 58.2015 27.6099 58.8081 27.4351C58.8808 28.1105 58.9345 28.6282 58.9977 29.2042C59.1304 29.2591 59.3073 29.4031 59.4685 29.3825C59.9677 29.3173 60.4669 29.2282 60.9471 29.0774C61.3863 28.9402 61.7939 28.7825 62.2014 29.1425C62.6027 29.4991 63.0292 29.4065 63.4526 29.2008C63.917 28.9779 64.3688 28.7276 64.8364 28.5116C65.124 28.3814 65.56 28.1071 65.7085 28.2236C66.4794 28.8374 67.2187 27.9837 67.9043 28.2271C68.8616 28.5699 69.6231 28.1345 70.4445 27.7814C71.0764 27.5105 71.6925 27.0511 72.4445 27.3974C73.0258 28.1311 72.1191 29.1974 72.8805 29.8693C73.7083 29.9036 74.514 29.9962 75.3165 29.9482C75.8062 29.9173 76.3054 29.7253 76.7604 29.5093C78.0336 28.8991 79.2816 28.2305 80.5486 27.6065C80.9909 27.3871 81.4585 27.2294 82.0083 27.0065C82.2263 27.7128 82.4 28.2751 82.6023 28.9334C83.0161 28.8614 83.3732 28.7894 83.7334 28.7379C84.0398 28.6968 84.4506 28.5254 84.6433 28.6762C85.4332 29.2865 86.2325 28.9505 87.0319 28.8442C87.7427 28.7482 88.3272 28.4156 88.8233 27.8054C89.4457 27.0374 90.2071 26.4237 91.2403 26.0397C91.4204 26.4477 91.5752 26.794 91.7648 27.2259C92.5073 27.3494 93.3161 27.4111 93.9353 28.1619C94.1818 28.4636 94.7442 28.5871 95.1581 28.5734C96.2291 28.5356 97.3034 28.4294 98.3618 28.2545C99.6761 28.0385 100.984 27.8019 102.295 28.1894C102.475 28.2442 102.719 28.5734 102.703 28.7551C102.687 28.9539 102.434 29.2385 102.238 29.2899C101.951 29.3653 101.607 29.3311 101.322 29.2316C100.393 28.9059 99.4803 28.9231 98.5261 29.1288C97.5972 29.3276 96.643 29.4202 95.6983 29.4648C94.7379 29.5093 93.8121 29.3756 93.0507 28.5802C92.8042 28.3231 92.384 28.2442 92.0302 28.1208C91.4962 27.9322 90.9528 27.7711 90.3019 27.5654C90.1408 27.6888 89.8217 27.8328 89.6448 28.0899C88.3462 29.9688 86.4979 29.8488 84.6559 29.7459C84.3494 29.7288 84.0114 29.5162 83.7491 29.6053C82.5043 30.0408 81.8061 29.4682 81.4522 28.0591C80.7413 28.4396 80.141 28.7791 79.5249 29.0842C78.8899 29.3962 78.2358 29.6533 77.6008 29.9688C76.5613 30.4865 75.5408 31.0008 74.3307 30.6099C73.9926 30.5002 73.5819 30.7059 73.2028 30.7025C72.4445 30.699 72.0559 30.3288 71.9169 29.4853C71.8537 29.0876 71.8632 28.6762 71.8316 28.1242C71.3292 28.2819 70.9153 28.3745 70.5298 28.5425C69.7052 28.9059 68.9027 29.3413 67.9738 29.0088C66.6942 29.5813 65.2314 29.0671 63.9613 29.8385C63.4968 30.1196 62.8144 30.3013 62.331 30.1471C61.6106 29.9208 60.9787 30.0476 60.3026 30.1813C58.6596 30.5002 58.6281 30.4762 57.6486 28.8682C56.726 29.0122 55.9456 29.6191 55.0894 30.0168C54.2237 30.4179 53.377 30.9459 52.3786 30.3322C52.1606 30.1985 51.7814 30.3699 51.4781 30.4145C50.8526 30.5105 50.2301 30.6853 49.6045 30.7059C48.7073 30.7333 48.385 30.3459 48.325 29.3448C48.3092 29.0739 48.3186 28.7996 48.3155 28.5254C48.8842 28.1311 49.0801 27.5551 49.118 26.8077C48.2807 26.3894 47.592 26.53 46.8558 27.0408C47.5319 27.5071 48.0322 28.0122 48.3566 28.5562H48.3534Z" fill="#134238"/>
<path d="M58.9599 54.3594C59.1843 54.0062 59.3264 53.6531 59.5697 53.4165C60.9631 52.0691 62.6249 51.164 64.3342 50.4611C68.7196 48.6646 73.1302 46.9332 77.5725 45.3183C80.1538 44.3789 82.8141 43.7103 85.5818 43.7549C86.6687 43.7721 87.7587 43.7858 88.7508 44.2898C89.37 44.6052 89.9861 45.02 90.4632 45.5412C90.7855 45.8909 90.9719 46.4874 91.0319 47.0017C91.1204 47.7354 90.2926 48.2566 89.7049 47.9103C89.5943 47.8451 89.4743 47.78 89.3921 47.6806C88.0146 46.0177 86.1347 45.9595 84.3054 45.8772C81.5345 45.7537 78.9026 46.58 76.3276 47.5743C72.3878 49.0931 68.4826 50.7183 64.5396 52.2234C62.8082 52.8851 61.0515 53.4542 59.4497 54.4656C59.3738 54.5136 59.2222 54.4211 58.9536 54.3628L58.9599 54.3594Z" fill="#134238"/>
<path d="M40.2054 30.9254C39.7726 31.1997 39.4661 31.4328 39.128 31.5837C39.0175 31.6317 38.7426 31.5117 38.692 31.3917C38.632 31.2545 38.7078 31.018 38.7868 30.8602C38.8342 30.7574 38.9195 30.3528 39.1186 30.7402C39.4219 31.3334 39.7726 30.514 40.2023 30.9254H40.2054Z" fill="#134238"/>
</g>
<defs>
<clipPath id="clip0_29_340">
<rect width="146" height="100" fill="white" transform="translate(0.5)"/>
</clipPath>
</defs>
</svg>
